<svg width="298" height="584" viewBox="0 0 298 584" fill="none" xmlns="http://www.w3.org/2000/svg">
<g clip-path="url(#clip0)">
<rect x="0.5" y="0.5" width="297" height="583" fill="white"/>
<rect width="296" height="64" transform="translate(1 1)" fill="white"/>
<g clip-path="url(#clip1)">
<rect width="296" height="0.5" transform="matrix(1 0 0 -1 1 65)" fill="#E5E5E5"/>
<path fill-rule="evenodd" clip-rule="evenodd" d="M28.495 34.2121C28.6121 34.095 28.8021 34.095 28.9192 34.2121L29.9092 35.2021C30.0263 35.3192 30.0263 35.5092 29.9092 35.6263L23.0406 42.495C22.9234 42.6121 22.9234 42.8021 23.0406 42.9192L29.9092 49.7879C30.0263 49.905 30.0263 50.095 29.9092 50.2121L28.9192 51.2021C28.8021 51.3192 28.6121 51.3192 28.495 51.2021L20.2121 42.9192C20.095 42.8021 20.095 42.6121 20.2121 42.495L28.495 34.2121Z" fill="black"/>
</g>
<path opacity="0.4" fill-rule="evenodd" clip-rule="evenodd" d="M286.5 5.5C288.016 5.5 289 6.4836 289 8V14.5C289 16.0164 288.016 17 286.5 17H267.5C265.984 17 265 16.0164 265 14.5V8C265 6.4836 265.984 5.5 267.5 5.5H286.5ZM286.4 6.5C287.37 6.5 288 7.1295 288 8.1V14.4C288 15.3705 287.37 16 286.4 16H267.6C266.63 16 266 15.3705 266 14.4V8.1C266 7.1295 266.63 6.5 267.6 6.5H286.4ZM291.5 11.25C291.5 13 290 13.25 290 13.25V9.25C290 9.25 291.5 9.5 291.5 11.25Z" fill="black"/>
<path fill-rule="evenodd" clip-rule="evenodd" d="M286 7.5C286.607 7.5 287 7.89344 287 8.5V14C287 14.6066 286.607 15 286 15H268C267.393 15 267 14.6066 267 14V8.5C267 7.89344 267.393 7.5 268 7.5H286Z" fill="black"/>
<path d="M129.179 15.2051C131.33 15.2051 132.607 13.5234 132.607 10.6758C132.607 9.60352 132.402 8.70117 132.01 8.00391C131.441 6.91992 130.463 6.33398 129.226 6.33398C127.386 6.33398 126.086 7.57031 126.086 9.30469C126.086 10.9336 127.258 12.1172 128.869 12.1172C129.859 12.1172 130.662 11.6543 131.06 10.8516H131.078C131.078 10.8516 131.101 10.8516 131.107 10.8516C131.119 10.8516 131.16 10.8516 131.16 10.8516C131.16 12.7852 130.427 13.9395 129.191 13.9395C128.465 13.9395 127.902 13.541 127.709 12.9023H126.203C126.455 14.291 127.633 15.2051 129.179 15.2051ZM129.232 10.916C128.26 10.916 127.568 10.2246 127.568 9.25781C127.568 8.31445 128.295 7.59375 129.238 7.59375C130.181 7.59375 130.908 8.32617 130.908 9.28125C130.908 10.2246 130.199 10.916 129.232 10.916ZM135.261 14.1035C135.818 14.1035 136.199 13.7051 136.199 13.1777C136.199 12.6445 135.818 12.252 135.261 12.252C134.711 12.252 134.324 12.6445 134.324 13.1777C134.324 13.7051 134.711 14.1035 135.261 14.1035ZM135.261 9.70898C135.818 9.70898 136.199 9.31641 136.199 8.78906C136.199 8.25586 135.818 7.86328 135.261 7.86328C134.711 7.86328 134.324 8.25586 134.324 8.78906C134.324 9.31641 134.711 9.70898 135.261 9.70898ZM142.041 15H143.488V13.4238H144.631V12.1465H143.488V6.54492H141.355C139.861 8.79492 138.672 10.6758 137.91 12.0762V13.4238H142.041V15ZM139.31 12.0938C140.295 10.3594 141.174 8.9707 141.982 7.77539H142.064V12.1816H139.31V12.0938ZM148.094 15H149.605V6.54492H148.099L145.89 8.0918V9.54492L147.994 8.06836H148.094V15ZM160.82 15H162.443L159.437 6.54492H157.738L154.738 15H156.267L156.994 12.8379H160.105L160.82 15ZM158.506 8.15625H158.605L159.754 11.6426H157.345L158.506 8.15625ZM172.627 15V6.54492H170.857L168.314 12.7031H168.209L165.666 6.54492H163.896V15H165.302V9.05273H165.385L167.722 14.6719H168.801L171.138 9.05273H171.22V15H172.627Z" fill="black"/>
<path fill-rule="evenodd" clip-rule="evenodd" d="M8.06061 11.5C8.68555 11.5 9.09091 11.8934 9.09091 12.5V15C9.09091 15.6066 8.68555 16 8.06061 16H7.0303C6.40536 16 6 15.6066 6 15V12.5C6 11.8934 6.40536 11.5 7.0303 11.5H8.06061ZM21.9697 6C22.5946 6 23 6.39344 23 7V15C23 15.6066 22.5946 16 21.9697 16H20.9394C20.3145 16 19.9091 15.6066 19.9091 15V7C19.9091 6.39344 20.3145 6 20.9394 6H21.9697ZM17.3333 8C17.9583 8 18.3636 8.39344 18.3636 9V15C18.3636 15.6066 17.9583 16 17.3333 16H16.303C15.6781 16 15.2727 15.6066 15.2727 15V9C15.2727 8.39344 15.6781 8 16.303 8H17.3333ZM12.697 10C13.3219 10 13.7273 10.3934 13.7273 11V15C13.7273 15.6066 13.3219 16 12.697 16H11.6667C11.0417 16 10.6364 15.6066 10.6364 15V11C10.6364 10.3934 11.0417 10 11.6667 10H12.697Z" fill="black"/>
<path fill-rule="evenodd" clip-rule="evenodd" d="M80.6366 7.27733C82.8525 7.27743 84.9837 8.12886 86.5896 9.65566C86.7105 9.77354 86.9038 9.77205 87.0229 9.65233L88.1789 8.48566C88.2392 8.42494 88.2729 8.34269 88.2724 8.25711C88.2719 8.17153 88.2373 8.08968 88.1763 8.02966C83.9612 3.99011 77.3114 3.99011 73.0963 8.02966C73.0352 8.08963 73.0006 8.17146 73 8.25704C72.9994 8.34262 73.033 8.4249 73.0933 8.48566L74.2496 9.65233C74.3686 9.77223 74.5621 9.77372 74.6829 9.65566C76.2891 8.12876 78.4205 7.27732 80.6366 7.27733V7.27733ZM80.6366 11.073C81.8541 11.0729 83.0281 11.5255 83.9306 12.3427C84.0527 12.4586 84.2449 12.4561 84.3639 12.337L85.5186 11.1703C85.5794 11.1091 85.6131 11.0261 85.6123 10.9399C85.6114 10.8536 85.576 10.7713 85.5139 10.7113C82.7657 8.15495 78.5098 8.15495 75.7616 10.7113C75.6995 10.7713 75.6641 10.8536 75.6633 10.9399C75.6625 11.0262 75.6963 11.1092 75.7573 11.1703L76.9116 12.337C77.0306 12.4561 77.2229 12.4586 77.3449 12.3427C78.2468 11.526 79.4199 11.0735 80.6366 11.073V11.073ZM82.8556 13.8573C82.9174 13.7967 82.9514 13.7133 82.9496 13.6268C82.9478 13.5403 82.9104 13.4584 82.8463 13.4003C81.5707 12.3214 79.7025 12.3214 78.4269 13.4003C78.3627 13.4583 78.3253 13.5402 78.3234 13.6267C78.3216 13.7132 78.3556 13.7967 78.4173 13.8573L80.4149 15.873C80.4735 15.9322 80.5533 15.9656 80.6366 15.9656C80.7199 15.9656 80.7997 15.9322 80.8583 15.873L82.8556 13.8573Z" fill="black"/>
<path d="M31.4824 15.1992C33.2812 15.1992 34.6172 14.1973 34.8984 12.6445H33.8262C33.5566 13.623 32.6602 14.2266 31.4824 14.2266C29.8535 14.2266 28.834 12.8965 28.834 10.7754C28.834 8.6543 29.8535 7.31836 31.4766 7.31836C32.6426 7.31836 33.5449 8.00391 33.8262 9.09375H34.8984C34.6465 7.46484 33.2578 6.3457 31.4766 6.3457C29.1797 6.3457 27.75 8.04492 27.75 10.7754C27.75 13.5 29.1855 15.1992 31.4824 15.1992ZM38.4677 14.2266C37.7353 14.2266 37.1903 13.8516 37.1903 13.207C37.1903 12.5742 37.6122 12.2402 38.5731 12.1758L40.2724 12.0645V12.6445C40.2724 13.5469 39.5048 14.2266 38.4677 14.2266ZM38.2802 15.1113C39.1239 15.1113 39.8153 14.7422 40.2255 14.0684H40.3192V15H41.2802V10.6758C41.2802 9.36328 40.4188 8.57227 38.8778 8.57227C37.5302 8.57227 36.5341 9.24023 36.3993 10.2539H37.4188C37.5595 9.75586 38.0868 9.46875 38.8427 9.46875C39.786 9.46875 40.2724 9.89648 40.2724 10.6758V11.25L38.4501 11.3613C36.9794 11.4492 36.1474 12.0996 36.1474 13.2305C36.1474 14.3848 37.0556 15.1113 38.2802 15.1113ZM43.1268 15H44.1346V11.0859C44.1346 10.1953 44.8318 9.55078 45.7928 9.55078C45.992 9.55078 46.3553 9.58594 46.4373 9.60938V8.60156C46.3084 8.58398 46.0975 8.57227 45.9334 8.57227C45.0955 8.57227 44.3689 9.00586 44.1814 9.62109H44.0877V8.68359H43.1268V15ZM47.7976 15H48.8054V11.0859C48.8054 10.1953 49.5026 9.55078 50.4636 9.55078C50.6628 9.55078 51.0261 9.58594 51.1081 9.60938V8.60156C50.9792 8.58398 50.7683 8.57227 50.6042 8.57227C49.7663 8.57227 49.0397 9.00586 48.8522 9.62109H48.7585V8.68359H47.7976V15ZM52.3746 15H53.3824V8.68359H52.3746V15ZM52.8785 7.40039C53.2652 7.40039 53.5816 7.08398 53.5816 6.69727C53.5816 6.31055 53.2652 5.99414 52.8785 5.99414C52.4918 5.99414 52.1754 6.31055 52.1754 6.69727C52.1754 7.08398 52.4918 7.40039 52.8785 7.40039ZM57.8071 9.46289C58.8091 9.46289 59.477 10.2012 59.5005 11.3203H56.02C56.0962 10.2012 56.7993 9.46289 57.8071 9.46289ZM59.4712 13.3652C59.2075 13.9219 58.6567 14.2207 57.8423 14.2207C56.77 14.2207 56.0728 13.4297 56.02 12.1816V12.1348H60.561V11.748C60.561 9.78516 59.5239 8.57227 57.8188 8.57227C56.0845 8.57227 54.9712 9.86133 54.9712 11.8477C54.9712 13.8457 56.0669 15.1113 57.8188 15.1113C59.2017 15.1113 60.1743 14.4492 60.479 13.3652H59.4712ZM62.1264 15H63.1342V11.0859C63.1342 10.1953 63.8314 9.55078 64.7924 9.55078C64.9916 9.55078 65.3549 9.58594 65.4369 9.60938V8.60156C65.308 8.58398 65.0971 8.57227 64.933 8.57227C64.0951 8.57227 63.3685 9.00586 63.181 9.62109H63.0873V8.68359H62.1264V15Z" fill="black"/>
<path d="M1 534H297V583H1V534Z" fill="#FAFAFA"/>
<path d="M28.0002 550.07C22.258 550.07 17.603 554.725 17.603 560.467C17.603 566.21 22.258 570.865 28.0002 570.865C33.7424 570.865 38.3972 566.21 38.3972 560.467C38.3972 554.725 33.7424 550.07 28.0002 550.07H28.0002ZM28.0002 569.608C22.9521 569.608 18.8599 565.516 18.8599 560.467C18.8599 555.419 22.9521 551.327 28.0002 551.327C33.0483 551.327 37.1404 555.419 37.1404 560.467C37.1404 565.516 33.0483 569.608 28.0002 569.608Z" fill="#333333"/>
<path d="M25.9372 558.368H26.7623C26.9901 558.368 27.175 558.18 27.175 557.948V556.268C27.175 556.036 26.9901 555.848 26.7623 555.848H25.9372C25.7094 555.848 25.5245 556.036 25.5245 556.268V557.948C25.5245 558.18 25.7094 558.368 25.9372 558.368V558.368ZM25.9372 562.149H26.7623C26.9901 562.149 27.175 561.961 27.175 561.729V560.048C27.175 559.817 26.9901 559.628 26.7623 559.628H25.9372C25.7094 559.628 25.5245 559.817 25.5245 560.048V561.729C25.5245 561.961 25.7094 562.149 25.9372 562.149V562.149ZM29.2378 558.368H30.0629C30.2907 558.368 30.4756 558.18 30.4756 557.948V556.268C30.4756 556.036 30.2907 555.848 30.0629 555.848H29.2378C29.0101 555.848 28.8253 556.036 28.8253 556.268V557.948C28.8253 558.18 29.0101 558.368 29.2378 558.368H29.2378ZM29.2378 562.149H30.0629C30.2907 562.149 30.4756 561.961 30.4756 561.729V560.048C30.4756 559.817 30.2907 559.628 30.0629 559.628H29.2378C29.0101 559.628 28.8253 559.817 28.8253 560.048V561.729C28.8253 561.961 29.0101 562.149 29.2378 562.149L29.2378 562.149ZM22.6365 558.368H23.4617C23.6894 558.368 23.8742 558.18 23.8742 557.948V556.268C23.8742 556.036 23.6893 555.848 23.4617 555.848H22.6365C22.4087 555.848 22.2239 556.036 22.2239 556.268V557.948C22.2239 558.18 22.4087 558.368 22.6365 558.368V558.368ZM33.3637 555.848H32.5385C32.3108 555.848 32.1259 556.036 32.1259 556.268V557.948C32.1259 558.18 32.3108 558.368 32.5385 558.368H33.3637C33.5915 558.368 33.7762 558.18 33.7762 557.948V556.268C33.7762 556.036 33.5915 555.848 33.3637 555.848H33.3637ZM23.8742 561.729V560.048C23.8742 559.817 23.6894 559.628 23.4617 559.628H22.6366C22.4088 559.628 22.2239 559.817 22.2239 560.048V561.729C22.2239 561.961 22.4088 562.149 22.6366 562.149H23.4617C23.6894 562.149 23.8742 561.961 23.8742 561.729ZM33.3637 559.628H32.5385C32.3108 559.628 32.1259 559.817 32.1259 560.048V561.729C32.1259 561.961 32.3108 562.149 32.5385 562.149H33.3637C33.5915 562.149 33.7762 561.961 33.7762 561.729V560.048C33.7762 559.817 33.5915 559.628 33.3637 559.628H33.3637ZM32.5385 563.829H23.4617C23.2339 563.829 23.049 564.017 23.049 564.249V564.669C23.049 564.901 23.2339 565.09 23.4617 565.09H32.5385C32.7662 565.09 32.9511 564.901 32.9511 564.669V564.249C32.9511 564.017 32.7662 563.829 32.5385 563.829Z" fill="#333333"/>
<path d="M26.2721 548.804L26.076 549C25.9358 549.141 26.0351 549.38 26.2333 549.38H29.767C29.9653 549.38 30.0646 549.141 29.9244 549L29.7282 548.804L28.1575 547.234C28.0706 547.147 27.9297 547.147 27.8428 547.234L26.2721 548.804Z" fill="#333333"/>
<path d="M1 534V533H0V534H1ZM297 534H298V533H297V534ZM297 583V584H298V583H297ZM1 583H0V584H1V583ZM1 535H297V533H1V535ZM296 534V583H298V534H296ZM297 582H1V584H297V582ZM2 583V534H0V583H2Z" fill="#DDDDDD"/>
</g>
<rect x="0.5" y="0.5" width="297" height="583" stroke="#DDDDDD"/>
<defs>
<clipPath id="clip0">
</clipPath>
<clipPath id="clip1">
<rect width="296" height="44" fill="white" transform="translate(1 21)"/>
</clipPath>
</defs>
</svg>
