<svg width="24" height="24" viewBox="0 0 24 24" fill="none" xmlns="http://www.w3.org/2000/svg">
<path d="M12 22.8C6.03535 22.8 1.19995 17.9646 1.19995 12C1.19995 6.03541 6.03535 1.20001 12 1.20001C17.9646 1.20001 22.7999 6.03541 22.7999 12C22.7999 17.9646 17.9646 22.8 12 22.8Z" fill="#FE3636"/>
<path d="M6.75 8.5H7.91667H17.25" stroke="white" stroke-width="1.2" stroke-linecap="round" stroke-linejoin="round"/>
<path d="M9.66675 8.50002V7.33335C9.66675 7.02393 9.78966 6.72719 10.0085 6.5084C10.2272 6.2896 10.524 6.16669 10.8334 6.16669H13.1667C13.4762 6.16669 13.7729 6.2896 13.9917 6.5084C14.2105 6.72719 14.3334 7.02393 14.3334 7.33335V8.50002M16.0834 8.50002V16.6667C16.0834 16.9761 15.9605 17.2729 15.7417 17.4916C15.5229 17.7104 15.2262 17.8334 14.9167 17.8334H9.08341C8.774 17.8334 8.47725 17.7104 8.25846 17.4916C8.03966 17.2729 7.91675 16.9761 7.91675 16.6667V8.50002H16.0834Z" stroke="white" stroke-width="1.2" stroke-linecap="round" stroke-linejoin="round"/>
<path d="M10.8333 11.4167V14.9167" stroke="white" stroke-width="1.2" stroke-linecap="round" stroke-linejoin="round"/>
<path d="M13.1667 11.4167V14.9167" stroke="white" stroke-width="1.2" stroke-linecap="round" stroke-linejoin="round"/>
</svg>
