<svg width="24" height="24" viewBox="0 0 24 24" fill="none" xmlns="http://www.w3.org/2000/svg">
<path d="M12 22.8C6.03535 22.8 1.19995 17.9646 1.19995 12C1.19995 6.03541 6.03535 1.20001 12 1.20001C17.9646 1.20001 22.7999 6.03541 22.7999 12C22.7999 17.9646 17.9646 22.8 12 22.8Z" fill="#368CFE"/>
<path d="M11.4167 7.91669H7.78704C7.512 7.91669 7.24822 8.02595 7.05374 8.22043C6.85926 8.41491 6.75 8.67868 6.75 8.95372V16.213C6.75 16.488 6.85926 16.7518 7.05374 16.9463C7.24822 17.1408 7.512 17.25 7.78704 17.25H15.0463C15.3213 17.25 15.5851 17.1408 15.7796 16.9463C15.9741 16.7518 16.0833 16.488 16.0833 16.213V12.5834" stroke="white" stroke-width="1.2" stroke-linecap="round" stroke-linejoin="round"/>
<path d="M15.3053 7.08366C15.5189 6.87002 15.8087 6.75 16.1108 6.75C16.4129 6.75 16.7027 6.87002 16.9163 7.08366C17.1299 7.29729 17.25 7.58705 17.25 7.88918C17.25 8.19131 17.1299 8.48106 16.9163 8.6947L11.8147 13.7963L9.66663 14.3333L10.2036 12.1853L15.3053 7.08366Z" stroke="white" stroke-width="1.2" stroke-linecap="round" stroke-linejoin="round"/>
</svg>
