<svg width="14" height="14" viewBox="0 0 14 14" fill="none" xmlns="http://www.w3.org/2000/svg">
<g clip-path="url(#clip0)">
<path d="M13.2085 4.6036V3.75413C13.2085 2.86363 12.4911 1.86608 11.5426 1.86608H7.34224L7.21617 1.63295C7.11674 1.44034 6.96599 1.27897 6.78059 1.16666C6.59519 1.05436 6.38235 0.995506 6.16559 0.996597H1.56103C1.1408 1.0016 0.740573 1.1747 0.448411 1.47686C0.155248 1.78003 -0.00584136 2.18726 0.00016197 2.60949V11.3914C-0.00584137 11.8136 0.155248 12.2208 0.448411 12.523C0.741574 12.8252 1.1418 12.9983 1.56203 13.0033H12.366C12.7863 12.9983 13.1865 12.8252 13.4797 12.523C13.7728 12.2208 13.9339 11.8126 13.9279 11.3914V6.00338C13.9279 5.4941 13.6537 4.98581 13.2105 4.6036H13.2085ZM12.0068 4.17836H8.56492L7.9906 3.07475H11.5576C11.7487 3.07475 12.0218 3.43495 12.0218 3.75313V4.17736H12.0068V4.17836ZM12.7242 5.98037V11.3684C12.7264 11.4684 12.6906 11.5656 12.6239 11.6403C12.5572 11.7149 12.4647 11.7615 12.365 11.7706H1.56103C1.46033 11.7641 1.36622 11.7183 1.29901 11.6431C1.2318 11.5678 1.19689 11.4691 1.20183 11.3684V2.58748C1.19938 2.48724 1.23513 2.38982 1.30182 2.31495C1.36852 2.24009 1.46118 2.19337 1.56103 2.18426H6.14057L7.65942 5.06886C7.712 5.16321 7.78831 5.2422 7.88079 5.298C7.97327 5.35381 8.07872 5.3845 8.18671 5.38704H12.1069C12.34 5.38804 12.7232 5.77025 12.7232 5.98137L12.7242 5.98037Z" fill="#666666"/>
</g>
<defs>
<clipPath id="clip0">
<rect width="14" height="14" fill="white"/>
</clipPath>
</defs>
</svg>
