<svg width="42" height="42" viewBox="0 0 42 42" fill="none" xmlns="http://www.w3.org/2000/svg">
<g clip-path="url(#clip0)">
<path fill-rule="evenodd" clip-rule="evenodd" d="M41.0673 2.23558L0.32292 24.7275C-0.208024 25.0207 -0.0506885 25.8206 0.552518 25.8915L15.2165 26.0182C15.5225 26.0545 15.7562 26.3068 15.768 26.6133L14.7163 41.3988C14.7394 42.0015 15.5225 42.2237 15.8602 41.7226L41.8899 3.12788C42.2558 2.58546 41.6418 1.9184 41.0673 2.23558Z" fill="#00519E"/>
<path fill-rule="evenodd" clip-rule="evenodd" d="M19.1976 5.89216C20.1216 5.35484 22.9014 9.02569 23.725 9.54513C24.2313 9.86436 25.3137 9.0737 24.7054 8.20796L16.6679 0.202265C16.2846 -0.21656 15.585 0.0582303 15.5912 0.624666L16.424 12.7165C16.4291 13.1869 16.8534 13.5531 17.2424 13.3891C17.2424 13.3891 17.5525 13.2206 17.6688 12.98C17.7841 12.7435 18.3315 6.39577 19.1976 5.89216Z" fill="#D9DADB"/>
<path fill-rule="evenodd" clip-rule="evenodd" d="M41.6787 29.423L33.5459 20.1588C32.9612 19.6633 32.6137 19.7869 32.2616 20.1618C32.2616 20.1618 31.8137 20.6021 31.9628 20.9203C32.1212 21.2574 35.2397 25.4268 36.4507 26.9427C36.5686 27.0898 36.4958 27.3621 36.2037 27.3365C34.3885 27.1766 29.5095 26.7328 28.9698 26.8426C28.5583 26.9264 28.2006 27.5092 28.1827 27.9086C28.1652 28.286 28.4707 29.1962 29.0062 29.3806L40.9443 30.8628C41.713 30.8741 42.1184 29.9756 41.6787 29.423Z" fill="#D9DADB"/>
<path fill-rule="evenodd" clip-rule="evenodd" d="M22.6118 23.1447C22.6477 23.2483 22.7041 23.3321 22.7799 23.4H24.9924C25.0923 23.3341 25.1881 23.2504 25.2742 23.1447H22.6118Z" fill="white"/>
<path fill-rule="evenodd" clip-rule="evenodd" d="M23.3103 22.4321C23.3068 22.3667 23.3165 22.2886 23.3324 22.1951H22.62C22.6036 22.2789 22.5918 22.3586 22.5836 22.4321H23.3103Z" fill="white"/>
<path fill-rule="evenodd" clip-rule="evenodd" d="M24.6859 22.6696C24.5255 22.7575 24.3036 22.7575 24.013 22.7575C23.7229 22.7575 23.5446 22.7314 23.4405 22.6696H22.5616C22.558 22.7575 22.558 22.8356 22.5657 22.9071H25.4326C25.4705 22.8356 25.5084 22.7575 25.5428 22.6696H24.6859Z" fill="white"/>
<path fill-rule="evenodd" clip-rule="evenodd" d="M24.978 22.1951C24.9559 22.2906 24.9319 22.3688 24.9001 22.4321H25.6207C25.6427 22.3586 25.6627 22.2809 25.6806 22.1951H24.978Z" fill="white"/>
<path fill-rule="evenodd" clip-rule="evenodd" d="M24.874 21.7222C24.9519 21.7641 24.9959 21.8396 25.0021 21.9597H25.7247C25.735 21.8856 25.7426 21.8059 25.7447 21.7222H24.874Z" fill="white"/>
<path fill-rule="evenodd" clip-rule="evenodd" d="M23.0864 21.2293C23.1525 21.3453 23.2524 21.4346 23.4005 21.4847H25.7288C25.715 21.3968 25.6909 21.309 25.6509 21.2293H23.0864Z" fill="white"/>
<path fill-rule="evenodd" clip-rule="evenodd" d="M22.9844 20.7543C22.9844 20.8365 22.9901 20.9182 23.0044 20.9918H25.4465C25.3486 20.9218 25.2184 20.8702 25.0483 20.8483L24.3354 20.7543H22.9844V20.7543Z" fill="white"/>
<path fill-rule="evenodd" clip-rule="evenodd" d="M23.0382 20.2798C23.0223 20.3574 23.01 20.4371 23.0003 20.5168H23.7188C23.7009 20.4514 23.707 20.3712 23.725 20.2798H23.0382Z" fill="white"/>
<path fill-rule="evenodd" clip-rule="evenodd" d="M23.1745 19.8048C23.1464 19.8784 23.1202 19.9585 23.0961 20.0423H23.7988C23.8531 19.9284 23.9253 19.8528 24.013 19.8048H23.1745Z" fill="white"/>
<path fill-rule="evenodd" clip-rule="evenodd" d="M25.799 19.0943C25.6109 18.935 25.2865 18.8568 24.7581 18.8568C24.4055 18.8568 24.0253 18.8788 23.705 19.0943H25.799Z" fill="white"/>
<path fill-rule="evenodd" clip-rule="evenodd" d="M26.0189 19.5673C26.0112 19.4815 25.9953 19.4018 25.9671 19.3318H23.4426C23.3867 19.3998 23.3324 19.4774 23.2827 19.5673H26.0189Z" fill="white"/>
<path fill-rule="evenodd" clip-rule="evenodd" d="M25.9912 20.0423C26.003 19.9606 26.0133 19.8804 26.0174 19.8048H25.1461C25.2266 19.8569 25.2604 19.9345 25.2625 20.0423H25.9912Z" fill="white"/>
<path fill-rule="evenodd" clip-rule="evenodd" d="M25.9272 20.4095C25.9349 20.3656 25.9431 20.3217 25.9513 20.2798H25.2384C25.2322 20.3196 25.2245 20.3635 25.2143 20.4095H25.9272Z" fill="white"/>
<path fill-rule="evenodd" clip-rule="evenodd" d="M22.0014 20.0423C22.005 19.9585 22.005 19.8784 22.0035 19.8048H20.918C21.0784 19.8288 21.1784 19.8967 21.2225 20.0423H22.0014Z" fill="white"/>
<path fill-rule="evenodd" clip-rule="evenodd" d="M21.9574 20.5168C21.9671 20.4351 21.9774 20.3554 21.9851 20.2798H21.2527C21.2527 20.3492 21.2466 20.4294 21.2363 20.5168H21.9574Z" fill="white"/>
<path fill-rule="evenodd" clip-rule="evenodd" d="M21.8769 20.9918C21.8933 20.9101 21.9071 20.8304 21.9189 20.7543H21.2045C21.1922 20.8283 21.1763 20.908 21.1604 20.9918H21.8769Z" fill="white"/>
<path fill-rule="evenodd" clip-rule="evenodd" d="M21.7729 21.4847C21.7908 21.403 21.8113 21.3172 21.8292 21.2293H21.1123C21.0923 21.3192 21.0743 21.405 21.0564 21.4847H21.7729Z" fill="white"/>
<path fill-rule="evenodd" clip-rule="evenodd" d="M21.6529 21.9597C21.675 21.8815 21.6949 21.8039 21.717 21.7222H21.0021C20.98 21.808 20.958 21.8856 20.938 21.9597H21.6529Z" fill="white"/>
<path fill-rule="evenodd" clip-rule="evenodd" d="M21.5007 22.4321C21.5289 22.3586 21.5551 22.2789 21.5827 22.1951H20.8601C20.8242 22.2906 20.7843 22.3688 20.7422 22.4321H21.5007Z" fill="white"/>
<path fill-rule="evenodd" clip-rule="evenodd" d="M18.1377 23.1447L18.0854 23.4H20.8242C20.9283 23.3341 21.0241 23.2504 21.1122 23.1447H18.1377Z" fill="white"/>
<path fill-rule="evenodd" clip-rule="evenodd" d="M18.2377 22.6696L18.1874 22.9071H21.2783C21.3224 22.8356 21.3629 22.7554 21.4028 22.6696H20.4178C20.3415 22.6895 20.2554 22.6977 20.1575 22.6977H18.9444L18.9505 22.6696H18.2377Z" fill="white"/>
<path fill-rule="evenodd" clip-rule="evenodd" d="M18.3376 22.1951L18.2879 22.4321H19.0003L19.0505 22.1951H18.3376Z" fill="white"/>
<path fill-rule="evenodd" clip-rule="evenodd" d="M18.438 21.7222L18.3878 21.9597H19.1002L19.1504 21.7222H18.438Z" fill="white"/>
<path fill-rule="evenodd" clip-rule="evenodd" d="M18.5401 21.2293L18.4878 21.4847H19.2007L19.2524 21.2293H18.5401Z" fill="white"/>
<path fill-rule="evenodd" clip-rule="evenodd" d="M18.64 20.7543L18.5898 20.9918H19.3027L19.3529 20.7543H18.64Z" fill="white"/>
<path fill-rule="evenodd" clip-rule="evenodd" d="M18.7399 20.2798L18.6902 20.5168H19.4026L19.4528 20.2798H18.7399Z" fill="white"/>
<path fill-rule="evenodd" clip-rule="evenodd" d="M18.8404 19.8048L18.7902 20.0423H19.503L19.5528 19.8048H18.8404Z" fill="white"/>
<path fill-rule="evenodd" clip-rule="evenodd" d="M18.9403 19.3318L18.8901 19.5673H21.9773C21.9609 19.4795 21.9374 19.3998 21.9051 19.3318H18.9403Z" fill="white"/>
<path fill-rule="evenodd" clip-rule="evenodd" d="M19.0285 18.9048L18.9905 19.0943H21.7288C21.5648 18.9569 21.3265 18.9048 21.0103 18.9048H19.0285Z" fill="white"/>
<path fill-rule="evenodd" clip-rule="evenodd" d="M17.7472 20.0423C17.7631 19.9585 17.7733 19.8784 17.781 19.8048H16.9523C17.0102 19.8467 17.0364 19.9187 17.0302 20.0423H17.7472Z" fill="white"/>
<path fill-rule="evenodd" clip-rule="evenodd" d="M17.6212 20.5168C17.6488 20.4391 17.675 20.3595 17.695 20.2798H16.9944C16.9744 20.3676 16.9544 20.4473 16.9262 20.5168H17.6212Z" fill="white"/>
<path fill-rule="evenodd" clip-rule="evenodd" d="M17.4469 21.9597C17.4551 21.8739 17.4566 21.7937 17.451 21.7222H16.7079C16.7402 21.7722 16.7602 21.8458 16.7561 21.9597H17.4469Z" fill="white"/>
<path fill-rule="evenodd" clip-rule="evenodd" d="M17.3649 22.4321C17.3766 22.3785 17.3889 22.3305 17.3987 22.2866C17.4048 22.2569 17.411 22.2248 17.4146 22.1951H16.7222C16.7002 22.2906 16.6781 22.3688 16.652 22.4321H17.3649Z" fill="white"/>
<path fill-rule="evenodd" clip-rule="evenodd" d="M14.1198 23.1447L14.0675 23.4H16.7981C16.8145 23.3903 16.8263 23.3822 16.8345 23.374C16.9221 23.3163 16.9985 23.2366 17.0625 23.1447H14.1198Z" fill="white"/>
<path fill-rule="evenodd" clip-rule="evenodd" d="M14.2197 22.6696L14.1695 22.9071H17.1989C17.2347 22.8295 17.2665 22.7498 17.2926 22.6696H16.4819C16.4081 22.7197 16.3199 22.7335 16.2138 22.7335H14.8983L14.9106 22.6696H14.2197Z" fill="white"/>
<path fill-rule="evenodd" clip-rule="evenodd" d="M14.3197 22.1951L14.27 22.4321H14.9603L15.0105 22.1951H14.3197Z" fill="white"/>
<path fill-rule="evenodd" clip-rule="evenodd" d="M14.4201 21.7222L14.3699 21.9597H15.0607L15.1104 21.7222H14.4201Z" fill="white"/>
<path fill-rule="evenodd" clip-rule="evenodd" d="M14.5221 21.2293L14.4698 21.4847H17.4049C17.3649 21.3749 17.305 21.2911 17.2189 21.2293H14.5221Z" fill="white"/>
<path fill-rule="evenodd" clip-rule="evenodd" d="M14.622 20.7543L14.5723 20.9918H17.3106C17.389 20.9218 17.4531 20.8421 17.5069 20.7543H16.732C16.6741 20.7844 16.6018 20.8002 16.5121 20.8002H15.3026L15.3129 20.7543H14.622Z" fill="white"/>
<path fill-rule="evenodd" clip-rule="evenodd" d="M14.7225 20.2798L14.6722 20.5168H15.3631L15.4128 20.2798H14.7225Z" fill="white"/>
<path fill-rule="evenodd" clip-rule="evenodd" d="M14.8224 19.8048L14.7722 20.0423H15.463L15.5127 19.8048H14.8224Z" fill="white"/>
<path fill-rule="evenodd" clip-rule="evenodd" d="M14.9224 19.3318L14.8721 19.5673H17.7913C17.7893 19.4774 17.779 19.3977 17.7652 19.3318H14.9224Z" fill="white"/>
<path fill-rule="evenodd" clip-rule="evenodd" d="M15.0105 18.9048L14.9726 19.0943H17.6591C17.513 18.9048 17.2886 18.9048 17.1748 18.9048H15.0105Z" fill="white"/>
</g>
<defs>
<clipPath id="clip0">
<rect width="42" height="42" fill="white"/>
</clipPath>
</defs>
</svg>
