<svg width="24" height="24" viewBox="0 0 24 24" fill="none" xmlns="http://www.w3.org/2000/svg">
<g clip-path="url(#clip0)">
<path d="M11.9986 23.9766C12.1372 23.9772 12.2747 23.9503 12.4029 23.8975C12.5311 23.8447 12.6476 23.7671 12.7457 23.669C12.8437 23.571 12.9214 23.4545 12.9742 23.3263C13.027 23.198 13.0538 23.0606 13.0533 22.922V1.07813C13.0533 0.798407 12.9421 0.530142 12.7444 0.332349C12.5466 0.134556 12.2783 0.0234375 11.9986 0.0234375C11.7189 0.0234375 11.4506 0.134556 11.2528 0.332349C11.055 0.530142 10.9439 0.798407 10.9439 1.07813V22.8985C10.9439 23.4845 11.4126 23.9766 11.9986 23.9766ZM17.5064 19.9219C17.6451 19.9225 17.7825 19.8956 17.9107 19.8428C18.0389 19.79 18.1554 19.7124 18.2535 19.6143C18.3515 19.5163 18.4292 19.3998 18.482 19.2716C18.5348 19.1433 18.5617 19.0059 18.5611 18.8673V5.13429C18.5611 4.85457 18.45 4.58631 18.2522 4.38852C18.0544 4.19072 17.7861 4.0796 17.5064 4.0796C17.2267 4.0796 16.9584 4.19072 16.7606 4.38852C16.5628 4.58631 16.4517 4.85457 16.4517 5.13429V18.8907C16.4517 19.4532 16.9439 19.9219 17.5064 19.9219ZM22.9454 16.0079C23.0841 16.0084 23.2215 15.9816 23.3497 15.9288C23.4779 15.876 23.5944 15.7983 23.6925 15.7003C23.7905 15.6022 23.8682 15.4857 23.921 15.3575C23.9738 15.2293 24.0007 15.0918 24.0001 14.9532V9.04691C24.0001 8.76718 23.889 8.49892 23.6912 8.30113C23.4934 8.10333 23.2251 7.99221 22.9454 7.99221C22.6657 7.99221 22.3974 8.10333 22.1996 8.30113C22.0018 8.49892 21.8907 8.76718 21.8907 9.04691V14.9532C21.8907 15.5391 22.336 16.0079 22.922 16.0079H22.9454ZM1.05469 16.0079C1.19336 16.0084 1.33077 15.9816 1.45899 15.9288C1.58721 15.876 1.70371 15.7983 1.80177 15.7003C1.89982 15.6022 1.97749 15.4857 2.03028 15.3575C2.08308 15.2293 2.10996 15.0918 2.10938 14.9532V9.04691C2.10938 8.76718 1.99826 8.49892 1.80047 8.30113C1.60268 8.10333 1.33441 7.99221 1.05469 7.99221C0.77497 7.99221 0.506705 8.10333 0.308912 8.30113C0.111119 8.49892 0 8.76718 0 9.04691L0 14.9532C0.00276643 15.232 0.114774 15.4987 0.31197 15.6959C0.509166 15.8931 0.775827 16.0051 1.05469 16.0079ZM6.16408 19.9219C6.30275 19.9225 6.44016 19.8956 6.56838 19.8428C6.69661 19.79 6.81311 19.7124 6.91116 19.6143C7.00921 19.5163 7.08688 19.3998 7.13968 19.2716C7.19247 19.1433 7.21936 19.0059 7.21878 18.8673V5.13429C7.21878 4.85457 7.10766 4.58631 6.90986 4.38852C6.71207 4.19072 6.44381 4.0796 6.16408 4.0796C5.88436 4.0796 5.6161 4.19072 5.4183 4.38852C5.22051 4.58631 5.10939 4.85457 5.10939 5.13429V18.8907C5.10939 19.4532 5.57814 19.9219 6.16408 19.9219Z" fill="#999999"/>
</g>
<defs>
<clipPath id="clip0">
<rect width="24" height="24" fill="white"/>
</clipPath>
</defs>
</svg>
