<svg width="24" height="24" viewBox="0 0 24 24" fill="none" xmlns="http://www.w3.org/2000/svg">
<path d="M12 0C5.38338 0 0 5.38338 0 12C0 18.6166 5.38338 24 12 24C18.6166 24 24 18.6166 24 12C24 5.38338 18.6166 0 12 0ZM12 22.1538C6.40154 22.1538 1.84615 17.5985 1.84615 12C1.84615 6.40154 6.40154 1.84615 12 1.84615C17.5985 1.84615 22.1538 6.40154 22.1538 12C22.1538 17.5985 17.5985 22.1538 12 22.1538Z" fill="#2BD990"/>
<path d="M9.29129 8.57153H10.0113C10.4913 8.57153 10.7313 8.81153 10.7313 9.29153V15.2915C10.7313 15.7715 10.4913 16.0115 10.0113 16.0115H9.29129C8.81129 16.0115 8.57129 15.7715 8.57129 15.2915V9.29153C8.57129 8.81153 8.81129 8.57153 9.29129 8.57153Z" fill="#2BD990"/>
<path d="M13.9884 8.57153H14.7084C15.1884 8.57153 15.4284 8.81153 15.4284 9.29153V15.2915C15.4284 15.7715 15.1884 16.0115 14.7084 16.0115H13.9884C13.5084 16.0115 13.2684 15.7715 13.2684 15.2915V9.29153C13.2684 8.81153 13.5084 8.57153 13.9884 8.57153Z" fill="#2BD990"/>
</svg>
