<svg width="24" height="24" viewBox="0 0 24 24" fill="none" xmlns="http://www.w3.org/2000/svg">
<path d="M12 0C5.38338 0 0 5.38338 0 12C0 18.6166 5.38338 24 12 24C18.6166 24 24 18.6166 24 12C24 5.38338 18.6166 0 12 0ZM12 22.1538C6.40154 22.1538 1.84615 17.5985 1.84615 12C1.84615 6.40154 6.40154 1.84615 12 1.84615C17.5985 1.84615 22.1538 6.40154 22.1538 12C22.1538 17.5985 17.5985 22.1538 12 22.1538Z" fill="#2BD990"/>
<path d="M11.4565 7.013C11.3465 6.92458 11.2165 6.87152 11.0809 6.8597C10.9453 6.84788 10.8094 6.87775 10.6883 6.94601C10.5671 7.01427 10.4653 7.11825 10.3943 7.24647C10.3232 7.37468 10.2856 7.52213 10.2856 7.6725V16.3284C10.2858 16.4787 10.3235 16.626 10.3946 16.7541C10.4657 16.8822 10.5674 16.9861 10.6886 17.0542C10.8098 17.1224 10.9456 17.1522 11.0811 17.1404C11.2166 17.1285 11.3465 17.0754 11.4565 16.9871L16.8389 12.6591C16.933 12.5835 17.0096 12.4843 17.0624 12.3697C17.1153 12.2551 17.1428 12.1283 17.1428 11.9996C17.1428 11.871 17.1153 11.7442 17.0624 11.6295C17.0096 11.5149 16.933 11.4157 16.8389 11.3401L11.4565 7.013Z" fill="#2BD990"/>
</svg>
