<svg width="24" height="24" viewBox="0 0 24 24" fill="none" xmlns="http://www.w3.org/2000/svg">
<path d="M12 22.8C6.03535 22.8 1.19995 17.9646 1.19995 12C1.19995 6.03541 6.03535 1.20001 12 1.20001C17.9646 1.20001 22.7999 6.03541 22.7999 12C22.7999 17.9646 17.9646 22.8 12 22.8Z" fill="#FE9636"/>
<path d="M12.1591 9.25488C11.2841 9.25488 10.5682 10.0068 10.5682 10.9258V11.7613H10.303C10.0113 11.7613 9.77271 12.0119 9.77271 12.3183V15.1031C9.77271 15.4095 10.0113 15.6601 10.303 15.6601H14.0151C14.3068 15.6601 14.5454 15.4095 14.5454 15.1031V12.3183C14.5454 12.0119 14.3068 11.7613 14.0151 11.7613H13.75V10.9258C13.75 10.0068 13.0341 9.25488 12.1591 9.25488ZM12.5303 13.9892C12.5038 14.017 12.4507 14.0449 12.4242 14.0449V14.8246H11.8939V14.0727C11.7879 14.017 11.6818 13.9335 11.6288 13.8499C11.4166 13.5436 11.4962 13.098 11.7879 12.8752C12.0795 12.6524 12.5038 12.736 12.7159 13.0423C12.9015 13.3487 12.8485 13.7942 12.5303 13.9892ZM12.9545 11.7613H11.3636V10.9258C11.3636 10.4524 11.7083 10.0903 12.1591 10.0903C12.6098 10.0903 12.9545 10.4524 12.9545 10.9258V11.7613Z" fill="white"/>
<path d="M17.574 9.27884L16.8407 9.69748C17.292 10.4789 17.5176 11.3721 17.5176 12.2931C17.5176 15.2236 15.1204 17.5959 12.1591 17.5959C9.19788 17.5959 6.80066 15.1957 6.80066 12.2652C6.80066 9.33466 9.19788 6.96235 12.1591 6.96235C12.6668 6.96235 13.1744 7.04608 13.6539 7.18563L13.1744 7.995H15.9947L14.5845 5.59479L14.1051 6.43207C13.4564 6.23671 12.8078 6.12507 12.1591 6.12507C8.74664 6.12507 5.95459 8.88811 5.95459 12.2652C5.95459 15.6422 8.74664 18.4052 12.1591 18.4052C15.5716 18.4052 18.3637 15.6422 18.3637 12.2652C18.3637 11.2325 18.0817 10.1719 17.574 9.27884Z" fill="white"/>
</svg>
