<svg width="24" height="24" viewBox="0 0 24 24" fill="none" xmlns="http://www.w3.org/2000/svg">
<path d="M23.5501 16.1003C23.5501 18.3503 21.7501 20.0003 19.5001 20.0003H5.4001C2.7001 20.0003 0.600098 17.9003 0.600098 15.2003C0.600098 12.6503 2.7001 10.4003 5.4001 10.4003C5.7001 10.4003 6.1501 10.4003 6.4501 10.5503V12.0503C6.1501 12.0503 5.8501 11.9003 5.5501 11.9003C3.4501 11.9003 1.9501 13.1003 1.9501 15.2003C1.9501 17.3003 4.2001 18.5003 5.4001 18.5003H19.3501C21.0001 18.5003 22.0501 17.6003 22.0501 15.9503C22.0501 14.3003 21.0001 13.2503 19.3501 13.2503H18.4501V12.9503C18.3001 12.0503 18.1501 11.3003 17.7001 10.5503V8.30029C18.6001 9.20029 19.5001 10.5503 19.8001 11.9003C21.9001 12.0503 23.5501 13.8503 23.5501 16.1003Z" fill="#368CFE"/>
<path d="M8.0999 17.15C7.4999 17.15 6.8999 16.7 6.8999 16.1V4.55C7.0499 3.95 7.4999 3.5 8.0999 3.5H15.8999C16.4999 3.5 17.0999 3.95 17.0999 4.55V15.95C17.0999 16.55 16.6499 17.15 15.8999 17.15H8.0999ZM10.7999 14.15C10.7999 14.6 10.9499 14.9 11.3999 15.05C11.6999 15.2 12.1499 15.2 12.5999 15.05C12.8999 14.9 13.1999 14.45 13.1999 14.15C13.1999 13.55 12.7499 13.1 11.9999 13.1C11.2499 13.1 10.7999 13.55 10.7999 14.15ZM8.5499 11.15H15.4499C15.7499 11.15 16.0499 10.85 16.0499 10.55V9.5C16.0499 9.2 15.7499 8.9 15.4499 8.9H8.5499C8.2499 8.9 7.9499 9.2 7.9499 9.5V10.55C7.9499 10.85 8.2499 11.15 8.5499 11.15ZM8.5499 7.25H15.4499C15.7499 7.25 16.0499 6.95 16.0499 6.65V5.6C16.0499 5.3 15.7499 5 15.4499 5H8.5499C8.2499 5 7.9499 5.3 7.9499 5.6V6.65C7.9499 6.95 8.2499 7.25 8.5499 7.25Z" fill="#368CFE"/>
</svg>
