<svg width="14" height="14" viewBox="0 0 14 14" fill="none" xmlns="http://www.w3.org/2000/svg">
<path d="M7 11.9583C9.73817 11.9583 11.9583 9.73846 11.9583 7C11.9583 4.26154 9.73817 2.04167 7 2.04167C4.26125 2.04167 2.04167 4.26154 2.04167 7C2.04167 9.73846 4.26125 11.9583 7 11.9583V11.9583ZM7 13.125C3.61725 13.125 0.875 10.3827 0.875 7C0.875 3.61725 3.61725 0.875 7 0.875C10.3827 0.875 13.125 3.61725 13.125 7C13.125 10.3827 10.3827 13.125 7 13.125ZM6.16 5.75079H5.10417L5.075 5.72192C5.06917 5.20917 5.25146 4.78275 5.621 4.44442C5.98442 4.10608 6.46363 3.9375 7.05717 3.9375C7.43692 3.9375 7.76242 4.00633 8.03367 4.14458C8.3022 4.28007 8.52719 4.48838 8.68292 4.74571C8.84421 5.00821 8.925 5.28646 8.925 5.58017C8.925 5.73854 8.89933 5.89429 8.84858 6.04683C8.79054 6.21326 8.70775 6.36999 8.603 6.51175C8.53679 6.60858 8.38017 6.76492 8.13254 6.9825C7.90533 7.19162 7.76271 7.33892 7.70583 7.42233C7.64896 7.50546 7.60054 7.61629 7.56 7.75483C7.51975 7.89396 7.49379 8.09025 7.48212 8.34283L6.33296 8.34167V8.15879C6.33296 7.80529 6.40004 7.48212 6.53363 7.18988C6.66721 6.89763 6.88246 6.62258 7.17879 6.36504C7.45792 6.12296 7.62708 5.95642 7.68338 5.86804C7.73879 5.78142 7.76679 5.67758 7.76679 5.55537C7.76679 5.39787 7.69912 5.26488 7.56204 5.15375C7.42408 5.04175 7.23829 4.98546 7.00438 4.98546C6.76492 4.98546 6.56979 5.05371 6.41667 5.19021C6.265 5.32612 6.18917 5.50229 6.18917 5.72162L6.16 5.75079V5.75079ZM6.89354 8.89583C7.05979 8.89583 7.20067 8.95183 7.31558 9.06413C7.4305 9.17613 7.48796 9.31321 7.48796 9.47538C7.48796 9.63783 7.4305 9.77608 7.31558 9.89071C7.26184 9.94606 7.19736 9.98985 7.12609 10.0194C7.05482 10.0489 6.97827 10.0636 6.90113 10.0625C6.8244 10.0639 6.74822 10.0493 6.67743 10.0196C6.60664 9.99001 6.54277 9.94601 6.48987 9.89042C6.43527 9.83621 6.39219 9.77153 6.36322 9.70026C6.33425 9.62899 6.31999 9.55259 6.32129 9.47567C6.32129 9.31321 6.37758 9.17613 6.49017 9.06413C6.54239 9.01007 6.60511 8.96726 6.67447 8.93832C6.74384 8.90938 6.81839 8.89492 6.89354 8.89583V8.89583Z" fill="#999999"/>
</svg>
