<svg width="24" height="24" viewBox="0 0 24 24" fill="none" xmlns="http://www.w3.org/2000/svg">
<path d="M2.75 8.11111C2.75 6.855 3.85702 5.75 5.33333 5.75H18.6667C20.143 5.75 21.25 6.855 21.25 8.11111V15.8889C21.25 17.145 20.143 18.25 18.6667 18.25H5.33333C3.85702 18.25 2.75 17.145 2.75 15.8889V8.11111Z" stroke="#666666" stroke-width="1.5"/>
<path fill-rule="evenodd" clip-rule="evenodd" d="M6.16683 8.6665C5.70659 8.6665 5.3335 9.0396 5.3335 9.49984C5.3335 9.96007 5.70659 10.3332 6.16683 10.3332H10.8022C11.2625 10.3332 11.6356 9.96007 11.6356 9.49984C11.6356 9.0396 11.2625 8.6665 10.8022 8.6665H6.16683ZM13.6408 10.3332C14.1154 10.3332 14.5002 9.96007 14.5002 9.49984C14.5002 9.0396 14.1154 8.6665 13.6408 8.6665C13.1662 8.6665 12.7814 9.0396 12.7814 9.49984C12.7814 9.96007 13.1662 10.3332 13.6408 10.3332Z" fill="#666666"/>
</svg>
