<svg width="50" height="50" viewBox="0 0 50 50" fill="none" xmlns="http://www.w3.org/2000/svg">
<circle cx="25" cy="25" r="25" fill="#9B51E0" fill-opacity="0.1"/>
<path fill-rule="evenodd" clip-rule="evenodd" d="M11.6694 15.9448C11.6694 14.4608 12.8724 13.2578 14.3564 13.2578H30.5634C32.0474 13.2578 33.2504 14.4608 33.2504 15.9448V26.1808C33.2504 26.7225 32.8112 27.1617 32.2694 27.1617C31.7277 27.1617 31.2885 26.7225 31.2885 26.1808V15.9448C31.2885 15.5443 30.9638 15.2197 30.5634 15.2197H14.3564C13.956 15.2197 13.6313 15.5443 13.6313 15.9448V33.8578C13.6313 34.2582 13.956 34.5828 14.3564 34.5828H22.8424C23.3842 34.5828 23.8234 35.022 23.8234 35.5638C23.8234 36.1056 23.3842 36.5447 22.8424 36.5447H14.3564C12.8724 36.5447 11.6694 35.3418 11.6694 33.8578V15.9448Z" fill="#9B51E0"/>
<rect x="16.96" y="19" width="11" height="2" rx="1" fill="#9B51E0"/>
<rect x="16.96" y="24" width="11" height="2" rx="1" fill="#9B51E0"/>
<rect x="16.96" y="29" width="5" height="2" rx="1" fill="#9B51E0"/>
<path fill-rule="evenodd" clip-rule="evenodd" d="M29.4668 27.5991C29.7108 27.5991 29.9572 27.6924 30.1439 27.879C30.5171 28.2522 30.5171 28.8576 30.1439 29.2332L28.2648 31.1155L36.7759 31.1155C37.3046 31.1155 37.7329 31.5437 37.7329 32.0725C37.7329 32.6013 37.3046 33.0295 36.7759 33.0295L28.2642 33.0295L30.1439 34.9108C30.5171 35.284 30.5171 35.8917 30.1439 36.265C29.7706 36.6382 29.1629 36.6382 28.7897 36.265L25.2798 32.7503C24.9065 32.3771 24.9065 31.7717 25.2798 31.3985L28.7897 27.879C28.9763 27.6924 29.2203 27.5991 29.4668 27.5991Z" fill="#9B51E0"/>
</svg>
