<svg width="24" height="24" viewBox="0 0 24 24" fill="none" xmlns="http://www.w3.org/2000/svg">
<path d="M20.1681 2.84521V7.13896H19.8563C19.7837 6.5624 19.6642 6.0749 19.4977 5.67412C19.3313 5.27334 19.1134 4.9499 18.8438 4.70146C18.5743 4.45303 18.2438 4.2749 17.8571 4.1624C17.4704 4.0499 17.0204 3.99365 16.5071 3.99365H13.929V17.9812C13.929 19.1062 14.0509 19.8093 14.2946 20.0882C14.6274 20.4655 15.1548 20.6554 15.8743 20.6554H16.5095V21.1546H8.74463V20.6554H9.3915C10.1649 20.6554 10.7157 20.421 11.0392 19.9546C11.2384 19.6757 11.3368 19.0194 11.3368 17.9835V3.99365H9.13603C8.57822 3.99365 8.09072 4.0335 7.67822 4.11553C7.26338 4.19756 6.91416 4.3499 6.62588 4.5749C6.3376 4.7999 6.10322 5.11865 5.9251 5.5335C5.74463 5.94834 5.61103 6.48271 5.51963 7.14131H5.00635V2.84521H20.1681Z" fill="#666666"/>
<path d="M9.03291 14.8523V16.3242H8.9251C8.89931 16.1273 8.85947 15.9585 8.80322 15.8226C8.74697 15.6843 8.67197 15.5742 8.57822 15.4898C8.48681 15.4054 8.37197 15.3421 8.24072 15.3046C8.10713 15.2671 7.95244 15.246 7.77666 15.246H6.89307V20.0437C6.89307 20.4304 6.93525 20.6695 7.01728 20.7656C7.13213 20.8945 7.3126 20.9601 7.55869 20.9601H7.77666V21.1312H5.11416V20.9601H5.33682C5.60166 20.9601 5.7915 20.8804 5.90166 20.7187C5.96963 20.6226 6.00478 20.3976 6.00478 20.0414V15.246H5.2501C5.05791 15.246 4.8915 15.2601 4.75088 15.2882C4.60791 15.3164 4.48838 15.3679 4.38994 15.4453C4.2915 15.5226 4.21182 15.6328 4.14853 15.7734C4.0876 15.914 4.04072 16.0992 4.01025 16.3242H3.83447V14.8523H9.03291Z" fill="#666666"/>
</svg>
