<svg width="24" height="24" viewBox="0 0 24 24" fill="none" xmlns="http://www.w3.org/2000/svg">
<path d="M12 22.7999C6.03535 22.7999 1.19995 17.9646 1.19995 12C1.19995 6.03535 6.03535 1.19995 12 1.19995C17.9646 1.19995 22.7999 6.03535 22.7999 12C22.7999 17.9646 17.9646 22.7999 12 22.7999ZM11.457 8.99995V7.88575C11.4568 7.75849 11.4213 7.63377 11.3544 7.52555C11.2874 7.41732 11.1917 7.32986 11.0778 7.27295C10.964 7.21604 10.8366 7.19192 10.7099 7.20329C10.5831 7.21467 10.462 7.26108 10.3601 7.33735L8.07415 9.05155C7.98907 9.11544 7.92002 9.19825 7.87246 9.29343C7.82491 9.38861 7.80015 9.49355 7.80015 9.59995C7.80015 9.70635 7.82491 9.81129 7.87246 9.90647C7.92002 10.0017 7.98907 10.0845 8.07415 10.1484L10.3601 11.8625C10.462 11.9388 10.5831 11.9852 10.7099 11.9966C10.8366 12.008 10.964 11.9839 11.0778 11.9269C11.1917 11.87 11.2874 11.7826 11.3544 11.6744C11.4213 11.5661 11.4568 11.4414 11.457 11.3141V10.2H13.8354C15.1398 10.2 16.2 11.2727 16.2 12.5999C16.2 13.9271 15.1398 14.9999 13.8354 14.9999H8.39995C8.24082 14.9999 8.08821 15.0632 7.97569 15.1757C7.86316 15.2882 7.79995 15.4408 7.79995 15.5999C7.79995 15.7591 7.86316 15.9117 7.97569 16.0242C8.08821 16.1367 8.24082 16.2 8.39995 16.2H13.8354C15.8057 16.2 17.4 14.5865 17.4 12.5999C17.4 10.6133 15.8057 8.99995 13.8354 8.99995H11.457Z" fill="#E5E5E5"/>
</svg>
