<svg width="32" height="32" viewBox="0 0 32 32" fill="none" xmlns="http://www.w3.org/2000/svg">
<path d="M4.64 18.1831H12.32L14.08 23.6928H16.96L10.08 2.7998H6.88L0 23.8828H2.88L4.64 18.1831V18.1831ZM7.84 7.54652C8 6.97892 8.16 6.40868 8.32 5.64836H8.48C8.48 5.83844 8.64 6.21861 8.96 7.16901C8.96 7.35909 9.12 7.54652 9.12 7.54652C9.12 7.7366 10.08 10.3977 11.68 15.7147H5.28C7.04 10.3977 7.84 7.7366 7.84 7.54652V7.54652ZM17.28 10.7779H32V13.4364H17.28V10.7779ZM0 26.5387H32V29.1998H0V26.5413V26.5387ZM17.28 18.7533H32V21.4118H17.28V18.7533V18.7533ZM17.28 2.98988H32V5.64836H17.28V2.98988V2.98988Z" fill="#FE9636"/>
</svg>
