<svg width="24" height="24" viewBox="0 0 24 24" fill="none" xmlns="http://www.w3.org/2000/svg">
<path d="M18.5962 7.82987L15.0497 4.35654V7.82987H18.5962ZM13.5397 9.29305L13.5413 3.43722H6.37414C6.26199 3.43442 6.15047 3.45438 6.04658 3.49586C5.94269 3.53734 5.84867 3.59944 5.77044 3.67826C5.69027 3.75511 5.62707 3.84729 5.58477 3.94909C5.54247 4.05089 5.52197 4.16013 5.52455 4.27002V19.6651C5.52455 19.8984 5.60651 20.0978 5.77044 20.2569C5.84867 20.3357 5.94269 20.3978 6.04658 20.4393C6.15047 20.4808 6.26199 20.5007 6.37414 20.4979L18.5947 20.4933C18.8343 20.4933 19.036 20.4129 19.1984 20.2523C19.2783 20.1752 19.3414 20.083 19.3836 19.9813C19.4259 19.8795 19.4466 19.7704 19.4443 19.6605V9.30851L13.5397 9.29305ZM6.5491 2.00031H15.0497L21 7.83296V19.4983C21 20.1858 20.7525 20.7776 20.2544 21.2658C20.0209 21.5024 19.7405 21.6895 19.4303 21.8157C19.1202 21.942 18.787 22.0046 18.4512 21.9997H6.55068C5.84925 21.9997 5.24556 21.7556 4.74747 21.2658C4.50614 21.037 4.31531 20.7621 4.18679 20.458C4.05828 20.154 3.99481 19.8273 4.00033 19.4983V4.49869C4.00033 3.81113 4.24938 3.22246 4.74589 2.73113C4.97967 2.49514 5.26026 2.30857 5.57038 2.18288C5.88049 2.0572 6.21357 1.99506 6.5491 2.00031Z" fill="#666666"/>
</svg>
