<svg width="50" height="50" viewBox="0 0 50 50" fill="none" xmlns="http://www.w3.org/2000/svg">
<circle cx="25" cy="25" r="25" fill="#368CFE" fill-opacity="0.1"/>
<path fill-rule="evenodd" clip-rule="evenodd" d="M11.6694 15.9448C11.6694 14.4608 12.8724 13.2578 14.3564 13.2578H30.5634C32.0474 13.2578 33.2504 14.4608 33.2504 15.9448V20.9783C33.2504 21.5201 32.8112 21.9592 32.2694 21.9592C31.7277 21.9592 31.2885 21.5201 31.2885 20.9783V15.9448C31.2885 15.5443 30.9638 15.2197 30.5634 15.2197H14.3564C13.956 15.2197 13.6313 15.5443 13.6313 15.9448V33.8578C13.6313 34.2582 13.956 34.5828 14.3564 34.5828H24.5924C25.1342 34.5828 25.5734 35.022 25.5734 35.5638C25.5734 36.1056 25.1342 36.5447 24.5924 36.5447H14.3564C12.8724 36.5447 11.6694 35.3418 11.6694 33.8578V15.9448Z" fill="#368CFE"/>
<rect x="16.96" y="19" width="11" height="2" rx="1" fill="#368CFE"/>
<rect x="16.96" y="24" width="11" height="2" rx="1" fill="#368CFE"/>
<rect x="16.96" y="29" width="5" height="2" rx="1" fill="#368CFE"/>
<path fill-rule="evenodd" clip-rule="evenodd" d="M36.7166 28.2788C36.7166 28.5229 36.6233 28.7693 36.4367 28.9559C36.0634 29.3291 35.4581 29.3291 35.0825 28.9559L33.2002 27.0768L33.2002 35.5879C33.2002 36.1167 32.7719 36.5449 32.2432 36.5449C31.7144 36.5449 31.2861 36.1167 31.2861 35.5879L31.2861 27.0762L29.4049 28.9559C29.0316 29.3292 28.4239 29.3292 28.0507 28.9559C27.6774 28.5827 27.6774 27.975 28.0507 27.6017L31.5654 24.0918C31.9386 23.7186 32.5439 23.7186 32.9172 24.0918L36.4367 27.6017C36.6233 27.7883 36.7166 28.0324 36.7166 28.2788Z" fill="#368CFE"/>
</svg>
