<svg width="32" height="32" viewBox="0 0 32 32" fill="none" xmlns="http://www.w3.org/2000/svg">
<path d="M32 17.572V25.6C32 28.03 30.03 30 27.6 30H4.4C1.97 30 3.75e-08 28.03 0 25.6V6.4C0 3.97 1.97 2 4.4 2H27.6C30.03 2 32 3.97 32 6.4V17.572V17.572ZM29.6 14.7736V6.4C29.6 6.13736 29.5483 5.87728 29.4478 5.63463C29.3472 5.39198 29.1999 5.1715 29.0142 4.98579C28.8285 4.80007 28.608 4.65275 28.3654 4.55224C28.1227 4.45173 27.8626 4.4 27.6 4.4H4.4C4.13736 4.4 3.87728 4.45173 3.63463 4.55224C3.39198 4.65275 3.1715 4.80007 2.98579 4.98579C2.80007 5.1715 2.65275 5.39198 2.55224 5.63463C2.45173 5.87728 2.4 6.13736 2.4 6.4V19.318C2.9297 19.2393 3.46449 19.1999 4 19.2C6.50904 19.1963 8.94044 20.0698 10.8736 21.6692C12.8136 16.6144 17.684 13.2 23.2 13.2C25.664 13.2 27.9624 13.8292 29.6 14.7736V14.7736ZM29.6 17.8576C29.4 17.5456 28.8076 17.0456 27.9632 16.6232C26.6788 15.9808 25.0392 15.6 23.2 15.6C18.6336 15.6 14.6076 18.46 13.0588 22.676C12.9564 22.9552 12.7812 23.438 12.534 24.1228C12.246 24.9216 11.242 25.1768 10.6076 24.6124C9.9912 24.0636 9.5368 23.6724 9.2524 23.4444C7.76378 22.2475 5.91012 21.5966 4 21.6C3.4576 21.6 2.9228 21.6512 2.4 21.752V25.6C2.4 25.8626 2.45173 26.1227 2.55224 26.3654C2.65275 26.608 2.80007 26.8285 2.98579 27.0142C3.1715 27.1999 3.39198 27.3472 3.63463 27.4478C3.87728 27.5483 4.13736 27.6 4.4 27.6H27.6C27.8626 27.6 28.1227 27.5483 28.3654 27.4478C28.608 27.3472 28.8285 27.1999 29.0142 27.0142C29.1999 26.8285 29.3472 26.608 29.4478 26.3654C29.5483 26.1227 29.6 25.8626 29.6 25.6V17.8572V17.8576ZM8.8 14.8C7.84522 14.8 6.92955 14.4207 6.25442 13.7456C5.57928 13.0705 5.2 12.1548 5.2 11.2C5.2 10.2452 5.57928 9.32955 6.25442 8.65442C6.92955 7.97928 7.84522 7.6 8.8 7.6C9.75478 7.6 10.6705 7.97928 11.3456 8.65442C12.0207 9.32955 12.4 10.2452 12.4 11.2C12.4 12.1548 12.0207 13.0705 11.3456 13.7456C10.6705 14.4207 9.75478 14.8 8.8 14.8ZM8.8 12.4C9.11826 12.4 9.42348 12.2736 9.64853 12.0485C9.87357 11.8235 10 11.5183 10 11.2C10 10.8817 9.87357 10.5765 9.64853 10.3515C9.42348 10.1264 9.11826 10 8.8 10C8.48174 10 8.17651 10.1264 7.95147 10.3515C7.72643 10.5765 7.6 10.8817 7.6 11.2C7.6 11.5183 7.72643 11.8235 7.95147 12.0485C8.17651 12.2736 8.48174 12.4 8.8 12.4V12.4Z" fill="#999999"/>
</svg>
