<svg width="50" height="50" viewBox="0 0 50 50" fill="none" xmlns="http://www.w3.org/2000/svg">
<circle cx="25" cy="25" r="25" fill="#2BD990" fill-opacity="0.1"/>
<path fill-rule="evenodd" clip-rule="evenodd" d="M11.6694 15.9448C11.6694 14.4608 12.8724 13.2578 14.3564 13.2578H30.5634C32.0474 13.2578 33.2504 14.4608 33.2504 15.9448V26.1808C33.2504 26.7225 32.8112 27.1617 32.2694 27.1617C31.7277 27.1617 31.2885 26.7225 31.2885 26.1808V15.9448C31.2885 15.5443 30.9638 15.2197 30.5634 15.2197H14.3564C13.956 15.2197 13.6313 15.5443 13.6313 15.9448V33.8578C13.6313 34.2582 13.956 34.5828 14.3564 34.5828H22.8617C23.4034 34.5828 23.8426 35.022 23.8426 35.5638C23.8426 36.1056 23.4034 36.5447 22.8617 36.5447H14.3564C12.8724 36.5447 11.6694 35.3418 11.6694 33.8578V15.9448Z" fill="#2BD990"/>
<rect x="16.96" y="18.9004" width="11" height="2" rx="1" fill="#2BD990"/>
<rect x="16.96" y="23.9004" width="11" height="2" rx="1" fill="#2BD990"/>
<rect x="16.96" y="28.9004" width="5" height="2" rx="1" fill="#2BD990"/>
<path d="M24.6313 31.0287L28.7427 35.5677L36.8796 27.1738" stroke="#2BD990" stroke-width="2.3" stroke-linecap="round" stroke-linejoin="round"/>
</svg>
