<svg width="48" height="48" viewBox="0 0 48 48" fill="none" xmlns="http://www.w3.org/2000/svg">
<g clip-path="url(#clip0)">
<path d="M12.5822 36V33.8017H10.7465C10.4294 33.818 10.1168 33.7205 9.86538 33.5269C9.63315 33.3274 9.45085 33.0765 9.33304 32.7942C9.19252 32.4671 9.09979 32.1217 9.05769 31.7683C9.00927 31.3978 8.98474 31.0245 8.98427 30.6509V23.9828C8.98427 23.0531 8.85577 22.2837 8.59878 21.6746C8.38429 21.1332 8.08024 20.6316 7.6993 20.1907C7.40696 19.8513 7.05168 19.5714 6.65297 19.3664C6.38297 19.2232 6.09167 19.1242 5.79021 19.0733V18.9634C6.53499 18.7435 7.19876 18.3103 7.6993 17.7177C8.04349 17.3284 8.34178 16.8315 8.59878 16.2338C8.85577 15.6339 8.98427 14.908 8.98427 14.0539V7.34914C8.98427 6.95986 9.00721 6.57287 9.05769 6.19504C9.10588 5.81492 9.19766 5.4806 9.33304 5.1875C9.45421 4.91233 9.6362 4.66808 9.86538 4.47306C10.1168 4.27949 10.4294 4.18203 10.7465 4.19828H12.5822V2H10.0122C9.54644 2 9.08293 2.10304 8.61713 2.31142C8.15133 2.51751 7.72913 2.82435 7.35052 3.22737C6.94853 3.66636 6.63115 4.1756 6.41434 4.72953C6.16882 5.32718 6.0472 6.01643 6.0472 6.79957V13.4677C6.0472 14.102 5.9623 14.6882 5.79021 15.2263C5.64136 15.7185 5.41185 16.1828 5.11101 16.6002C4.85233 16.9584 4.5208 17.258 4.13811 17.4795C3.79273 17.6813 3.40019 17.7887 3 17.7909V20.2823C3.39008 20.2823 3.77098 20.3785 4.13811 20.5754C4.50525 20.7701 4.82878 21.0517 5.11101 21.4181C5.39325 21.7845 5.61812 22.2356 5.79021 22.7737C5.9623 23.3095 6.0472 23.9095 6.0472 24.569V31.2004C6.0472 31.9813 6.16882 32.6705 6.41434 33.2705C6.65986 33.8681 6.97192 34.3696 7.35052 34.7726C7.72913 35.1757 8.15363 35.4825 8.61713 35.6886C9.08293 35.8947 9.54644 36 10.0122 36H12.5822ZM37.9878 36C38.4536 36 38.9171 35.8947 39.3829 35.6886C39.8487 35.4825 40.2709 35.1757 40.6495 34.7726C41.0281 34.3696 41.3401 33.8681 41.5857 33.2705C41.8312 32.6705 41.9528 31.9813 41.9528 31.2004V24.569C41.9528 23.9324 42.0377 23.3553 42.2098 22.8287C42.3611 22.3431 42.5905 21.8852 42.889 21.4731C43.1477 21.1149 43.4792 20.8153 43.8619 20.5938C44.2073 20.392 44.5998 20.2846 45 20.2823V17.7909C44.6099 17.7909 44.229 17.6925 43.8619 17.4978C43.4772 17.287 43.1448 16.9928 42.889 16.6369C42.5881 16.2194 42.3586 15.7552 42.2098 15.2629C42.032 14.6813 41.9453 14.0757 41.9528 13.4677V6.79957C41.9528 6.01643 41.8312 5.32718 41.5857 4.72953C41.3688 4.1756 41.0515 3.66636 40.6495 3.22737C40.2928 2.84069 39.8621 2.52924 39.3829 2.31142C38.9453 2.10987 38.4697 2.0037 37.9878 2H35.4178V4.19828H37.2535C37.6206 4.19828 37.9143 4.28987 38.1346 4.47306C38.3549 4.65625 38.5316 4.89898 38.667 5.20582C38.8023 5.51037 38.8941 5.85156 38.9423 6.23168C38.9905 6.60951 39.0157 7.00566 39.0157 7.42241V14.0516C39.0157 14.979 39.1442 15.7484 39.4012 16.3598C39.6582 16.9689 39.9588 17.4635 40.3007 17.8436C40.6449 18.2214 40.9914 18.4962 41.347 18.668C41.7027 18.8374 41.9895 18.9359 42.2098 18.9611V19.071C41.465 19.2909 40.8012 19.724 40.3007 20.3167C39.9565 20.706 39.6582 21.2006 39.4012 21.8005C39.1442 22.3982 39.0157 23.1241 39.0157 23.9805V30.6486C39.0157 31.0378 38.9928 31.4225 38.9423 31.8027C38.9019 32.1504 38.8091 32.4901 38.667 32.8102C38.5458 33.0854 38.3638 33.3296 38.1346 33.5246C37.8832 33.7182 37.5706 33.8157 37.2535 33.7994H35.4178V35.9977H37.9878V36Z" fill="#31BFAE"/>
<path d="M20.0176 17.5125V28.9976H16V9.52535H19.8062V12.3902L19.8767 12.4655C20.489 11.385 21.2863 10.5376 22.2731 9.92318C23.268 9.30578 24.4003 8.98697 25.5507 9.00041C27.5485 9.00041 29.1211 9.55124 30.2731 10.6576C31.4251 11.7617 32 13.4189 32 15.6293V29H27.9824V16.7592C27.9361 15.2267 27.63 14.1157 27.0661 13.4259C26.5022 12.7339 25.6211 12.3902 24.4229 12.3902C23.7423 12.3902 23.13 12.522 22.5903 12.7856C22.0507 13.0493 21.5903 13.4118 21.2159 13.8779C20.8414 14.3416 20.5463 14.8878 20.3348 15.5163C20.1233 16.1424 20.0176 16.8086 20.0176 17.5125Z" fill="#28B4C7"/>
<g filter="url(#filter0_f)">
<rect x="9" y="39" width="30" height="6" rx="3" fill="#31BFAE" fill-opacity="0.22"/>
</g>
</g>
<defs>
<filter id="filter0_f" x="3" y="33" width="42" height="18" filterUnits="userSpaceOnUse" color-interpolation-filters="sRGB">
<feFlood flood-opacity="0" result="BackgroundImageFix"/>
<feBlend mode="normal" in="SourceGraphic" in2="BackgroundImageFix" result="shape"/>
<feGaussianBlur stdDeviation="3" result="effect1_foregroundBlur"/>
</filter>
<clipPath id="clip0">
<rect width="48" height="48" fill="white"/>
</clipPath>
</defs>
</svg>
