<svg width="24" height="24" viewBox="0 0 24 24" fill="none" xmlns="http://www.w3.org/2000/svg">
<path d="M12.0002 22.8002C6.03559 22.8002 1.2002 17.9648 1.2002 12.0002C1.2002 6.03559 6.03559 1.2002 12.0002 1.2002C17.9648 1.2002 22.8002 6.03559 22.8002 12.0002C22.8002 17.9648 17.9648 22.8002 12.0002 22.8002Z" fill="#FE9636"/>
<path d="M5.90444 10.3139C5.64852 10.3139 5.49738 10.1609 5.44499 10.008C5.38051 9.81682 5.44499 9.58741 5.58605 9.48679L10.3014 5.60494C10.4042 5.52847 10.5191 5.49023 10.646 5.49023C10.7105 5.49023 10.7609 5.50231 10.8254 5.5164C11.0289 5.58079 11.17 5.75788 11.17 5.96113V6.02552L9.97096 8.73618H17.6325C17.8622 8.73618 18.0395 8.91528 18.0395 9.14268V9.90737C18.0395 10.01 18.0012 10.1106 17.9246 10.1992C17.8481 10.2756 17.7453 10.3259 17.6325 10.3259H5.90444V10.3139ZM13.2737 18.5102C13.2093 18.5102 13.1589 18.4982 13.0944 18.4841C12.8909 18.4197 12.7498 18.2426 12.7498 18.0393V17.977L13.9488 15.2663H6.2994C6.06968 15.2663 5.89235 15.0872 5.89235 14.8598V14.0951C5.89235 13.8657 6.07169 13.6886 6.2994 13.6886H18.0254C18.2934 13.6886 18.4325 13.8415 18.4849 13.9945C18.5493 14.1857 18.4849 14.401 18.3438 14.5157L13.6284 18.3975C13.5156 18.4599 13.4007 18.5102 13.2737 18.5102Z" fill="white"/>
</svg>
