<svg width="32" height="32" viewBox="0 0 32 32" fill="none" xmlns="http://www.w3.org/2000/svg">
<path d="M29.3279 29.328C29.3279 30.064 29.0239 30.736 28.5439 31.216C28.0479 31.712 27.3599 32 26.6559 32H5.32788C4.62388 32 3.93588 31.712 3.43988 31.216C2.94388 30.72 2.65588 30.032 2.65588 29.328V2.672C2.65588 1.936 2.95988 1.264 3.43988 0.784C3.95188 0.288 4.62388 0 5.32788 0H20.3199L29.3279 8.528V29.328V29.328ZM24.8959 8L19.9999 3.376V8H24.8959ZM26.6719 29.328V10.672H18.6719C17.9359 10.672 17.3439 10.08 17.3439 9.344V2.672H5.34388V29.344L26.6719 29.328V29.328Z" fill="#FE9636"/>
<path d="M21.5 19.634C22.1667 20.0189 22.1667 20.9811 21.5 21.366L13.25 26.1292C12.5833 26.5141 11.75 26.0329 11.75 25.2631L11.75 15.7369C11.75 14.9671 12.5833 14.4859 13.25 14.8708L21.5 19.634Z" fill="#FE9636"/>
</svg>
