<svg width="14" height="14" viewBox="0 0 14 14" fill="none" xmlns="http://www.w3.org/2000/svg">
<path d="M0.90444 5.31387C0.648519 5.31387 0.497385 5.16093 0.444992 5.00799C0.380508 4.81682 0.444992 4.58741 0.58605 4.48679L5.30144 0.604939C5.40421 0.528469 5.51907 0.490234 5.64602 0.490234C5.71051 0.490234 5.76089 0.502309 5.82537 0.516395C6.0289 0.580791 6.16996 0.757879 6.16996 0.961128V1.02552L4.97096 3.73618H12.6325C12.8622 3.73618 13.0395 3.91528 13.0395 4.14268V4.90737C13.0395 5.01001 13.0012 5.11062 12.9246 5.19917C12.8481 5.27564 12.7453 5.32595 12.6325 5.32595H0.90444V5.31387ZM8.27374 13.5102C8.20926 13.5102 8.15888 13.4982 8.0944 13.4841C7.89087 13.4197 7.74981 13.2426 7.74981 13.0393V12.977L8.94881 10.2663H1.2994C1.06968 10.2663 0.892349 10.0872 0.892349 9.8598V9.09511C0.892349 8.8657 1.07169 8.68861 1.2994 8.68861H13.0254C13.2934 8.68861 13.4325 8.84155 13.4849 8.99449C13.5493 9.18566 13.4849 9.40099 13.3438 9.51569L8.62841 13.3975C8.51556 13.4599 8.4007 13.5102 8.27374 13.5102Z" fill="#999999"/>
</svg>
