<svg width="24" height="24" viewBox="0 0 24 24" fill="none" xmlns="http://www.w3.org/2000/svg">
<path d="M6.29108 20.5V19.4009H5.37325C5.21468 19.409 5.05842 19.3603 4.93269 19.2635C4.81657 19.1637 4.72543 19.0382 4.66652 18.8971C4.59626 18.7336 4.5499 18.5608 4.52885 18.3842C4.50463 18.1989 4.49237 18.0123 4.49213 17.8254V14.4914C4.49213 14.0265 4.42788 13.6418 4.29939 13.3373C4.19214 13.0666 4.04012 12.8158 3.84965 12.5954C3.70348 12.4256 3.52584 12.2857 3.32649 12.1832C3.19149 12.1116 3.04584 12.0621 2.89511 12.0366V11.9817C3.26749 11.8717 3.59938 11.6552 3.84965 11.3588C4.02174 11.1642 4.17089 10.9157 4.29939 10.6169C4.42788 10.3169 4.49213 9.954 4.49213 9.52694V6.17457C4.49213 5.97993 4.50361 5.78644 4.52885 5.59752C4.55294 5.40746 4.59883 5.2403 4.66652 5.09375C4.72711 4.95616 4.8181 4.83404 4.93269 4.73653C5.05842 4.63974 5.21468 4.59101 5.37325 4.59914H6.29108V3.5H5.00612C4.77322 3.5 4.54147 3.55152 4.30857 3.65571C4.07567 3.75876 3.86456 3.91218 3.67526 4.11369C3.47426 4.33318 3.31558 4.5878 3.20717 4.86476C3.08441 5.16359 3.0236 5.50822 3.0236 5.89978V9.23384C3.0236 9.55098 2.98115 9.84409 2.89511 10.1131C2.82068 10.3593 2.70593 10.5914 2.55551 10.8001C2.42616 10.9792 2.2604 11.129 2.06906 11.2398C1.89637 11.3406 1.7001 11.3943 1.5 11.3955V12.6412C1.69504 12.6412 1.88549 12.6893 2.06906 12.7877C2.25262 12.885 2.41439 13.0259 2.55551 13.2091C2.69662 13.3922 2.80906 13.6178 2.89511 13.8869C2.98115 14.1548 3.0236 14.4547 3.0236 14.7845V18.1002C3.0236 18.4906 3.08441 18.8353 3.20717 19.1352C3.32993 19.4341 3.48596 19.6848 3.67526 19.8863C3.86456 20.0878 4.07681 20.2412 4.30857 20.3443C4.54147 20.4473 4.77322 20.5 5.00612 20.5H6.29108ZM18.9939 20.5C19.2268 20.5 19.4585 20.4473 19.6914 20.3443C19.9243 20.2412 20.1354 20.0878 20.3247 19.8863C20.514 19.6848 20.6701 19.4341 20.7928 19.1352C20.9156 18.8353 20.9764 18.4906 20.9764 18.1002V14.7845C20.9764 14.4662 21.0188 14.1777 21.1049 13.9143C21.1806 13.6715 21.2953 13.4426 21.4445 13.2365C21.5738 13.0575 21.7396 12.9076 21.9309 12.7969C22.1036 12.696 22.2999 12.6423 22.5 12.6412V11.3955C22.305 11.3955 22.1145 11.3462 21.9309 11.2489C21.7386 11.1435 21.5724 10.9964 21.4445 10.8184C21.2941 10.6097 21.1793 10.3776 21.1049 10.1315C21.016 9.84065 20.9726 9.53786 20.9764 9.23384V5.89978C20.9764 5.50822 20.9156 5.16359 20.7928 4.86476C20.6844 4.5878 20.5257 4.33318 20.3247 4.11369C20.1464 3.92034 19.9311 3.76462 19.6914 3.65571C19.4726 3.55494 19.2348 3.50185 18.9939 3.5H17.7089V4.59914H18.6267C18.8103 4.59914 18.9572 4.64494 19.0673 4.73653C19.1774 4.82813 19.2658 4.94949 19.3335 5.10291C19.4012 5.25519 19.4471 5.42578 19.4712 5.61584C19.4952 5.80475 19.5079 6.00283 19.5079 6.21121V9.52579C19.5079 9.98949 19.5721 10.3742 19.7006 10.6799C19.8291 10.9844 19.9794 11.2317 20.1504 11.4218C20.3224 11.6107 20.4957 11.7481 20.6735 11.834C20.8513 11.9187 20.9948 11.9679 21.1049 11.9805V12.0355C20.7325 12.1454 20.4006 12.362 20.1504 12.6583C19.9783 12.853 19.8291 13.1003 19.7006 13.4003C19.5721 13.6991 19.5079 14.062 19.5079 14.4902V17.8243C19.5079 18.0189 19.4964 18.2113 19.4712 18.4013C19.4509 18.5752 19.4045 18.7451 19.3335 18.9051C19.2729 19.0427 19.1819 19.1648 19.0673 19.2623C18.9416 19.3591 18.7853 19.4078 18.6267 19.3997H17.7089V20.4989H18.9939V20.5Z" fill="#666666"/>
<path d="M10.0088 11.2562V16.9988H8V7.26268H9.90308V8.69508L9.93833 8.73275C10.2445 8.19251 10.6432 7.76879 11.1366 7.46159C11.634 7.15289 12.2002 6.99348 12.7753 7.0002C13.7742 7.0002 14.5606 7.27562 15.1366 7.82881C15.7126 8.38083 16 9.20943 16 10.3146V17H13.9912V10.8796C13.9681 10.1134 13.815 9.55783 13.533 9.21297C13.2511 8.86693 12.8106 8.69508 12.2115 8.69508C11.8711 8.69508 11.565 8.761 11.2952 8.89282C11.0253 9.02465 10.7952 9.2059 10.6079 9.43895C10.4207 9.67082 10.2731 9.94388 10.1674 10.2581C10.0617 10.5712 10.0088 10.9043 10.0088 11.2562Z" fill="#666666"/>
</svg>
