<svg width="24" height="24" viewBox="0 0 24 24" fill="none" xmlns="http://www.w3.org/2000/svg">
<path d="M12 22.7999C9.86391 22.7999 7.77585 22.1665 5.9998 20.9798C4.22375 19.7931 2.83948 18.1064 2.02206 16.1329C1.20463 14.1595 0.990755 11.988 1.40747 9.89298C1.8242 7.79798 2.8528 5.87361 4.3632 4.3632C5.87361 2.8528 7.79798 1.8242 9.89298 1.40747C11.988 0.990755 14.1595 1.20463 16.1329 2.02206C18.1064 2.83948 19.7931 4.22375 20.9798 5.9998C22.1665 7.77585 22.7999 9.86391 22.7999 12C22.7999 14.8643 21.6621 17.6113 19.6367 19.6367C17.6113 21.6621 14.8643 22.7999 12 22.7999ZM16.86 7.67995C16.86 7.53813 16.832 7.39769 16.7777 7.26666C16.7235 7.13562 16.6439 7.01657 16.5436 6.91628C16.4433 6.81599 16.3243 6.73644 16.1932 6.68216C16.0622 6.62789 15.9218 6.59995 15.78 6.59995H8.21995C7.93352 6.59995 7.65882 6.71374 7.45628 6.91628C7.25374 7.11882 7.13995 7.39352 7.13995 7.67995V16.32C7.13995 16.6064 7.25374 16.8811 7.45628 17.0836C7.65882 17.2862 7.93352 17.4 8.21995 17.4H12.1458C11.6987 16.7685 11.4591 16.0136 11.46 15.24C11.46 14.2374 11.8582 13.276 12.5671 12.5671C13.276 11.8582 14.2374 11.46 15.24 11.46C15.8015 11.4628 16.3552 11.592 16.86 11.838V7.67995ZM16.4712 15.8005C16.7525 15.3545 16.8595 14.8204 16.7719 14.3004C16.6842 13.7804 16.408 13.311 15.996 12.9819C15.584 12.6527 15.0651 12.487 14.5386 12.5163C14.0121 12.5457 13.5149 12.768 13.142 13.1409C12.7691 13.5138 12.5468 14.011 12.5174 14.5375C12.4881 15.064 12.6538 15.5829 12.9829 15.9949C13.3121 16.4069 13.7815 16.6831 14.3015 16.7708C14.8215 16.8584 15.3555 16.7514 15.8016 16.4701L17.2758 17.9437L17.9454 17.2741L16.4712 15.8005ZM14.673 15.8545C14.4388 15.8547 14.2098 15.7854 14.015 15.6555C13.8202 15.5256 13.6684 15.3408 13.5786 15.1245C13.4888 14.9082 13.4653 14.6702 13.5108 14.4405C13.5564 14.2108 13.669 13.9998 13.8345 13.8342C14 13.6685 14.2109 13.5557 14.4405 13.5099C14.6702 13.4642 14.9082 13.4876 15.1246 13.5771C15.3409 13.6667 15.5259 13.8184 15.656 14.0131C15.7861 14.2077 15.8556 14.4366 15.8556 14.6708C15.8553 14.9844 15.7306 15.2851 15.5089 15.5069C15.2872 15.7287 14.9866 15.854 14.673 15.8545ZM8.75995 9.29995H14.16V10.38H8.75995V9.29995ZM10.92 12.54H8.75995V11.46H10.92V12.54Z" fill="#368CFE"/>
</svg>
