<svg width="50" height="50" viewBox="0 0 50 50" fill="none" xmlns="http://www.w3.org/2000/svg">
<circle cx="25" cy="25" r="25" fill="#1ED2A7" fill-opacity="0.1"/>
<path d="M25.0001 11.9277C22.4146 11.9277 19.8872 12.6944 17.7375 14.1308C15.5877 15.5672 13.9122 17.6089 12.9228 19.9975C11.9334 22.3862 11.6745 25.0146 12.1789 27.5504C12.6833 30.0862 13.9283 32.4155 15.7565 34.2437C17.5848 36.0719 19.914 37.3169 22.4498 37.8213C24.9856 38.3257 27.614 38.0668 30.0027 37.0774C32.3914 36.088 34.433 34.4125 35.8694 32.2627C37.3058 30.113 38.0725 27.5856 38.0725 25.0001C38.0725 21.5331 36.6952 18.2081 34.2437 15.7565C31.7921 13.305 28.4671 11.9277 25.0001 11.9277V11.9277ZM32.9245 32.9244C31.0917 34.7578 28.68 35.8989 26.1003 36.1534C23.5205 36.408 20.9323 35.7601 18.7767 34.3203C16.621 32.8805 15.0313 30.7378 14.2783 28.2573C13.5253 25.7768 13.6557 23.112 14.6473 20.7168C15.6388 18.3217 17.4302 16.3444 19.7161 15.1219C22.0021 13.8995 24.6411 13.5074 27.1837 14.0126C29.7263 14.5178 32.0151 15.889 33.66 17.8925C35.305 19.896 36.2044 22.4078 36.205 25.0001C36.2094 26.4723 35.9218 27.9307 35.3587 29.2909C34.7955 30.6512 33.9682 31.8862 32.9245 32.9244Z" fill="#1ED2A7"/>
<path d="M28.735 25.9328C28.181 25.9328 27.6394 26.0971 27.1787 26.4049C26.7181 26.7127 26.359 27.1502 26.147 27.6621C25.935 28.1739 25.8795 28.7371 25.9876 29.2805C26.0957 29.8239 26.3625 30.323 26.7543 30.7148C27.146 31.1066 27.6451 31.3734 28.1885 31.4814C28.7319 31.5895 29.2951 31.534 29.807 31.322C30.3189 31.11 30.7563 30.751 31.0641 30.2903C31.3719 29.8297 31.5362 29.2881 31.5362 28.734C31.5362 27.9911 31.2411 27.2786 30.7158 26.7533C30.1904 26.2279 29.4779 25.9328 28.735 25.9328ZM28.735 29.6678C28.5503 29.6678 28.3698 29.613 28.2163 29.5104C28.0627 29.4078 27.943 29.262 27.8724 29.0914C27.8017 28.9207 27.7832 28.733 27.8192 28.5519C27.8552 28.3707 27.9442 28.2044 28.0748 28.0738C28.2053 27.9432 28.3717 27.8543 28.5528 27.8182C28.734 27.7822 28.9217 27.8007 29.0923 27.8714C29.263 27.942 29.4088 28.0617 29.5114 28.2153C29.614 28.3688 29.6688 28.5494 29.6688 28.734C29.6688 28.9817 29.5704 29.2192 29.3953 29.3943C29.2202 29.5694 28.9827 29.6678 28.735 29.6678ZM20.5305 30.7945L30.8017 20.5233C30.9573 20.3437 31.0391 20.1118 31.0306 19.8743C31.0221 19.6368 30.9239 19.4113 30.7559 19.2432C30.5878 19.0752 30.3624 18.977 30.1248 18.9685C29.8873 18.96 29.6554 19.0418 29.4758 19.1974L19.2046 29.4686C19.049 29.6482 18.9672 29.8801 18.9757 30.1176C18.9842 30.3552 19.0824 30.5806 19.2504 30.7487C19.4185 30.9167 19.644 31.0149 19.8815 31.0234C20.119 31.0319 20.3509 30.9501 20.5305 30.7945V30.7945ZM21.2651 24.0653C21.8191 24.0653 22.3607 23.901 22.8214 23.5932C23.282 23.2854 23.6411 22.848 23.8531 22.3361C24.0651 21.8242 24.1206 21.261 24.0125 20.7176C23.9044 20.1742 23.6376 19.6751 23.2459 19.2834C22.8541 18.8916 22.355 18.6248 21.8116 18.5167C21.2682 18.4086 20.705 18.4641 20.1931 18.6761C19.6813 18.8881 19.2438 19.2472 18.936 19.7078C18.6282 20.1685 18.4639 20.7101 18.4639 21.2641C18.4639 22.007 18.759 22.7195 19.2843 23.2449C19.8097 23.7702 20.5222 24.0653 21.2651 24.0653ZM21.2651 20.3304C21.4498 20.3304 21.6303 20.3851 21.7838 20.4877C21.9374 20.5903 22.0571 20.7362 22.1278 20.9068C22.1984 21.0774 22.2169 21.2651 22.1809 21.4463C22.1449 21.6274 22.0559 21.7938 21.9253 21.9244C21.7948 22.055 21.6284 22.1439 21.4473 22.1799C21.2661 22.2159 21.0784 22.1975 20.9078 22.1268C20.7371 22.0561 20.5913 21.9364 20.4887 21.7829C20.3861 21.6293 20.3313 21.4488 20.3313 21.2641C20.3313 21.0165 20.4297 20.779 20.6048 20.6039C20.7799 20.4287 21.0174 20.3304 21.2651 20.3304V20.3304Z" fill="#1ED2A7"/>
</svg>
