<svg width="32" height="32" viewBox="0 0 32 32" fill="none" xmlns="http://www.w3.org/2000/svg">
<path d="M29.3279 29.328C29.3279 30.064 29.0239 30.736 28.5439 31.216C28.0479 31.712 27.3599 32 26.6559 32H5.32788C4.62388 32 3.93588 31.712 3.43988 31.216C2.94388 30.72 2.65588 30.032 2.65588 29.328V2.672C2.65588 1.936 2.95988 1.264 3.43988 0.784C3.95188 0.288 4.62388 0 5.32788 0H20.3199L29.3279 8.528V29.328V29.328ZM24.8959 8L19.9999 3.376V8H24.8959ZM26.6719 29.328V10.672H18.6719C17.9359 10.672 17.3439 10.08 17.3439 9.344V2.672H5.34388V29.344L26.6719 29.328V29.328Z" fill="#FE9636"/>
<path d="M19.728 13.0719L14.176 14.7679C13.504 14.9599 12.96 15.6639 12.96 16.3359V22.1919C12.96 22.1919 12.56 21.9199 11.664 22.0479C10.336 22.2399 9.28003 23.2479 9.28003 24.3039C9.28003 25.3599 10.352 26.0159 11.664 25.8239C12.976 25.6319 13.952 24.6559 13.952 23.5999V17.9519C13.952 17.4879 14.512 17.2799 14.512 17.2799L19.424 15.7439C19.424 15.7439 19.968 15.5679 19.968 16.0639V20.7359C19.968 20.7359 19.472 20.4479 18.576 20.5599C17.264 20.7199 16.192 21.7119 16.192 22.7679C16.192 23.8239 17.264 24.4959 18.576 24.3359C19.888 24.1759 20.96 23.1839 20.96 22.1279V13.9359C20.944 13.2639 20.4 12.8799 19.728 13.0719Z" fill="#FE9636"/>
</svg>
