<svg width="50" height="50" viewBox="0 0 50 50" fill="none" xmlns="http://www.w3.org/2000/svg">
<circle cx="25" cy="25" r="25" fill="#FE9636" fill-opacity="0.1"/>
<path d="M23.2638 35.6723H12.6243C12.02 35.6723 11.5305 35.1828 11.5305 34.5785V15.3477C11.5305 14.7434 12.02 14.2539 12.6243 14.2539H37.2336C37.8379 14.2539 38.3274 14.7434 38.3274 15.3477V22.9437C38.3274 23.548 37.8379 24.0375 37.2336 24.0375C36.6293 24.0375 36.1399 23.548 36.1399 22.9437V16.4414H13.718V33.4848H23.2638C23.8681 33.4848 24.3576 33.9742 24.3576 34.5785C24.3576 35.1828 23.8681 35.6723 23.2638 35.6723Z" fill="#FE9636"/>
<path d="M24.9288 26.9343C24.6773 26.9343 24.423 26.8468 24.2179 26.6718L11.9132 16.18C11.4538 15.789 11.3992 15.0972 11.7929 14.6378C12.1839 14.1784 12.8757 14.1237 13.3351 14.5148L24.9288 24.4023L36.5226 14.5148C36.982 14.1237 37.6738 14.1784 38.0648 14.6378C38.4558 15.0972 38.4011 15.789 37.9417 16.18L25.6371 26.6718C25.4347 26.8468 25.1804 26.9343 24.9288 26.9343ZM33.1949 35.821C32.916 35.821 32.6343 35.7144 32.421 35.5011C31.9945 35.0745 31.9945 34.3827 32.421 33.9534L35.6613 30.7077L32.421 27.4648C31.9945 27.0382 31.9945 26.3437 32.421 25.9171C32.8476 25.4905 33.5421 25.4905 33.9687 25.9171L37.98 29.9339C38.4066 30.3605 38.4066 31.0523 37.98 31.4788L33.9687 35.5011C33.7554 35.7144 33.4765 35.821 33.1949 35.821Z" fill="#FE9636"/>
<path d="M34.9777 31.8027H24.4316C23.8273 31.8027 23.3379 31.3133 23.3379 30.709C23.3379 30.1047 23.8273 29.6152 24.4316 29.6152H34.9777C35.582 29.6152 36.0715 30.1047 36.0715 30.709C36.0715 31.3133 35.582 31.8027 34.9777 31.8027Z" fill="#FE9636"/>
</svg>
