<svg width="24" height="24" viewBox="0 0 24 24" fill="none" xmlns="http://www.w3.org/2000/svg">
<path d="M12.0002 22.7999C6.03559 22.7999 1.2002 17.9646 1.2002 12C1.2002 6.03535 6.03559 1.19995 12.0002 1.19995C17.9648 1.19995 22.8002 6.03535 22.8002 12C22.8002 17.9646 17.9648 22.7999 12.0002 22.7999Z" fill="#FE3636"/>
<path d="M6.75 8.5H7.91667H17.25" stroke="white" stroke-width="1.2" stroke-linecap="round" stroke-linejoin="round"/>
<path d="M9.6665 8.50008V7.33341C9.6665 7.024 9.78942 6.72725 10.0082 6.50846C10.227 6.28966 10.5238 6.16675 10.8332 6.16675H13.1665C13.4759 6.16675 13.7727 6.28966 13.9915 6.50846C14.2103 6.72725 14.3332 7.024 14.3332 7.33341V8.50008M16.0832 8.50008V16.6667C16.0832 16.9762 15.9603 17.2729 15.7415 17.4917C15.5227 17.7105 15.2259 17.8334 14.9165 17.8334H9.08317C8.77375 17.8334 8.47701 17.7105 8.25821 17.4917C8.03942 17.2729 7.9165 16.9762 7.9165 16.6667V8.50008H16.0832Z" stroke="white" stroke-width="1.2" stroke-linecap="round" stroke-linejoin="round"/>
<path d="M10.8335 11.4167V14.9167" stroke="white" stroke-width="1.2" stroke-linecap="round" stroke-linejoin="round"/>
<path d="M13.1665 11.4167V14.9167" stroke="white" stroke-width="1.2" stroke-linecap="round" stroke-linejoin="round"/>
</svg>
