<svg width="24" height="24" viewBox="0 0 24 24" fill="none" xmlns="http://www.w3.org/2000/svg">
<path d="M22 15.4V21.8C22 22.4 21.4 23 20.8 23H3.2C2.6 22.8 2 22.4 2 21.8V15.4C2 14.8 2.6 14.2 3.2 14.2C3.8 14.2 4.4 14.8 4.4 15.4V20.6H19.8V15.4C19.8 14.8 20.4 14.2 21 14.2C21.4 14.2 22 14.8 22 15.4ZM11.2 16.8C11.4 17 11.6 17.2 12 17.2C12.4 17.2 12.6 17 12.8 16.8L17.4 12C18 11.6 18 10.8 17.4 10.4C17 10 16.2 10 15.8 10.4L13.2 13.2V3.2C13.2 2.4 12.6 2 12 2C11.4 2 10.8 2.4 10.8 3V13L8.2 10.4C7.8 10 7 10 6.6 10.4C6 10.8 6 11.6 6.6 12L11.2 16.8Z" fill="#368CFE"/>
</svg>
