<svg width="24" height="24" viewBox="0 0 24 24" fill="none" xmlns="http://www.w3.org/2000/svg">
<path d="M12.0002 22.7999C6.03559 22.7999 1.2002 17.9646 1.2002 12C1.2002 6.03535 6.03559 1.19995 12.0002 1.19995C17.9648 1.19995 22.8002 6.03535 22.8002 12C22.8002 17.9646 17.9648 22.7999 12.0002 22.7999Z" fill="#368CFE"/>
<path d="M11.4167 7.91675H7.78704C7.512 7.91675 7.24822 8.02601 7.05374 8.22049C6.85926 8.41497 6.75 8.67875 6.75 8.95379V16.213C6.75 16.4881 6.85926 16.7519 7.05374 16.9463C7.24822 17.1408 7.512 17.2501 7.78704 17.2501H15.0463C15.3213 17.2501 15.5851 17.1408 15.7796 16.9463C15.9741 16.7519 16.0833 16.4881 16.0833 16.213V12.5834" stroke="white" stroke-width="1.2" stroke-linecap="round" stroke-linejoin="round"/>
<path d="M15.3051 7.08366C15.5188 6.87002 15.8085 6.75 16.1107 6.75C16.4128 6.75 16.7025 6.87002 16.9162 7.08366C17.1298 7.29729 17.2498 7.58705 17.2498 7.88918C17.2498 8.19131 17.1298 8.48106 16.9162 8.6947L11.8146 13.7963L9.6665 14.3333L10.2035 12.1853L15.3051 7.08366Z" stroke="white" stroke-width="1.2" stroke-linecap="round" stroke-linejoin="round"/>
</svg>
