<svg width="24" height="24" viewBox="0 0 24 24" fill="none" xmlns="http://www.w3.org/2000/svg">
<path d="M12.9167 9.30001H6.04167V19.2H17.9583V9.30001H12.9167ZM11.0833 7.49999V5.7H10.625C10.5034 5.7 10.3869 5.65259 10.3009 5.5682C10.215 5.48381 10.1667 5.36935 10.1667 5.25001V3.44999C10.1667 3.33065 10.215 3.21619 10.3009 3.1318C10.3869 3.04741 10.5034 3 10.625 3H13.375C13.4966 3 13.6131 3.04741 13.6991 3.1318C13.785 3.21619 13.8333 3.33065 13.8333 3.44999V5.25001C13.8333 5.36935 13.785 5.48381 13.6991 5.5682C13.6131 5.65259 13.4966 5.7 13.375 5.7H12.9167V7.49999H18.875C18.9954 7.49999 19.1146 7.52327 19.2258 7.5685C19.337 7.61373 19.4381 7.68003 19.5232 7.7636C19.6083 7.84717 19.6758 7.94639 19.7219 8.05558C19.768 8.16478 19.7917 8.28181 19.7917 8.4V20.1C19.7917 20.3387 19.6951 20.5676 19.5232 20.7364C19.3513 20.9052 19.1181 21 18.875 21H5.125C4.88189 21 4.64873 20.9052 4.47682 20.7364C4.30491 20.5676 4.20833 20.3387 4.20833 20.1V8.4C4.20833 8.16131 4.3049 7.93238 4.47681 7.7636C4.64872 7.59482 4.88188 7.49999 5.125 7.49999H11.0833ZM1.45833 12.45H2.375C2.49656 12.45 2.61313 12.4974 2.69909 12.5818C2.78504 12.6662 2.83333 12.7807 2.83333 12.9V15.6C2.83333 15.6591 2.82148 15.7176 2.79844 15.7722C2.77541 15.8268 2.74165 15.8764 2.69909 15.9182C2.65653 15.96 2.60601 15.9931 2.5504 16.0158C2.49479 16.0384 2.43519 16.05 2.375 16.05H1.45833C1.39814 16.05 1.33854 16.0384 1.28293 16.0158C1.22732 15.9931 1.17679 15.96 1.13423 15.9182C1.09167 15.8764 1.05791 15.8268 1.03488 15.7722C1.01185 15.7176 0.999997 15.6591 1 15.6V12.9C1 12.7807 1.04829 12.6662 1.13424 12.5818C1.22019 12.4974 1.33677 12.45 1.45833 12.45ZM7.875 12.9H10.625V15.6H7.875V12.9ZM13.375 12.9H16.125V15.6H13.375V12.9ZM21.625 12.45H22.5417C22.6632 12.45 22.7798 12.4974 22.8658 12.5818C22.9517 12.6662 23 12.7807 23 12.9V15.6C23 15.6591 22.9881 15.7176 22.9651 15.7722C22.9421 15.8268 22.9083 15.8764 22.8658 15.9182C22.8232 15.96 22.7727 15.9931 22.7171 16.0158C22.6615 16.0384 22.6019 16.05 22.5417 16.05H21.625C21.5648 16.05 21.5052 16.0384 21.4496 16.0158C21.394 15.9931 21.3435 15.96 21.3009 15.9182C21.2583 15.8764 21.2246 15.8268 21.2016 15.7722C21.1785 15.7176 21.1667 15.6591 21.1667 15.6V12.9C21.1667 12.7807 21.215 12.6662 21.3009 12.5818C21.3869 12.4974 21.5034 12.45 21.625 12.45Z" fill="#666666"/>
</svg>
