<svg width="128" height="128" viewBox="0 0 128 128" fill="none" xmlns="http://www.w3.org/2000/svg">
<g clip-path="url(#clip0)">
<path d="M31.3532 40.4851C32.0461 40.4851 32.7107 40.7604 33.2007 41.2504C33.6907 41.7404 33.966 42.4049 33.966 43.0979V84.9021C33.966 85.5951 33.6907 86.2596 33.2007 86.7496C32.7107 87.2396 32.0461 87.5149 31.3532 87.5149C30.6602 87.5149 29.9957 87.2396 29.5057 86.7496C29.0157 86.2596 28.7404 85.5951 28.7404 84.9021V43.0979C28.7404 42.4049 29.0157 41.7404 29.5057 41.2504C29.9957 40.7604 30.6602 40.4851 31.3532 40.4851V40.4851ZM86.2213 45.7106C86.9142 45.7106 87.5788 45.9859 88.0688 46.4759C88.5588 46.9659 88.834 47.6305 88.834 48.3234V77.0638C88.834 77.7568 88.5588 78.4213 88.0688 78.9113C87.5788 79.4013 86.9142 79.6766 86.2213 79.6766C85.5283 79.6766 84.8638 79.4013 84.3738 78.9113C83.8838 78.4213 83.6085 77.7568 83.6085 77.0638V48.3234C83.6085 47.6305 83.8838 46.9659 84.3738 46.4759C84.8638 45.9859 85.5283 45.7106 86.2213 45.7106ZM44.417 50.9362C45.11 50.9362 45.7745 51.2114 46.2645 51.7014C46.7545 52.1914 47.0298 52.856 47.0298 53.5489V74.4511C47.0298 75.144 46.7545 75.8086 46.2645 76.2986C45.7745 76.7886 45.11 77.0638 44.417 77.0638C43.7241 77.0638 43.0595 76.7886 42.5695 76.2986C42.0795 75.8086 41.8043 75.144 41.8043 74.4511V53.5489C41.8043 52.856 42.0795 52.1914 42.5695 51.7014C43.0595 51.2114 43.7241 50.9362 44.417 50.9362ZM15.6766 50.9362C16.3695 50.9362 17.0341 51.2114 17.5241 51.7014C18.0141 52.1914 18.2894 52.856 18.2894 53.5489V71.8383C18.2894 72.5312 18.0141 73.1958 17.5241 73.6858C17.0341 74.1758 16.3695 74.4511 15.6766 74.4511C14.9836 74.4511 14.3191 74.1758 13.8291 73.6858C13.3391 73.1958 13.0638 72.5312 13.0638 71.8383V53.5489C13.0638 52.856 13.3391 52.1914 13.8291 51.7014C14.3191 51.2114 14.9836 50.9362 15.6766 50.9362ZM99.2851 53.5489C99.9781 53.5489 100.643 53.8242 101.133 54.3142C101.623 54.8042 101.898 55.4688 101.898 56.1617V71.8383C101.898 72.5312 101.623 73.1958 101.133 73.6858C100.643 74.1758 99.9781 74.4511 99.2851 74.4511C98.5922 74.4511 97.9276 74.1758 97.4376 73.6858C96.9476 73.1958 96.6723 72.5312 96.6723 71.8383V56.1617C96.6723 55.4688 96.9476 54.8042 97.4376 54.3142C97.9276 53.8242 98.5922 53.5489 99.2851 53.5489ZM112.349 56.1617C113.042 56.1617 113.706 56.437 114.196 56.927C114.686 57.417 114.962 58.0815 114.962 58.7745V69.2255C114.962 69.9185 114.686 70.583 114.196 71.073C113.706 71.563 113.042 71.8383 112.349 71.8383C111.656 71.8383 110.991 71.563 110.501 71.073C110.011 70.583 109.736 69.9185 109.736 69.2255V58.7745C109.736 58.0815 110.011 57.417 110.501 56.927C110.991 56.437 111.656 56.1617 112.349 56.1617ZM70.5447 53.5489C71.2376 53.5489 71.9022 53.8242 72.3922 54.3142C72.8822 54.8042 73.1574 55.4688 73.1574 56.1617V69.2255C73.1574 69.9185 72.8822 70.583 72.3922 71.073C71.9022 71.563 71.2376 71.8383 70.5447 71.8383C69.8517 71.8383 69.1872 71.563 68.6972 71.073C68.2072 70.583 67.9319 69.9185 67.9319 69.2255V56.1617C67.9319 55.4688 68.2072 54.8042 68.6972 54.3142C69.1872 53.8242 69.8517 53.5489 70.5447 53.5489ZM2.61277 58.7745C3.30571 58.7745 3.97028 59.0497 4.46027 59.5397C4.95026 60.0297 5.22553 60.6943 5.22553 61.3872V66.6128C5.22553 67.3057 4.95026 67.9703 4.46027 68.4603C3.97028 68.9503 3.30571 69.2255 2.61277 69.2255C1.91982 69.2255 1.25525 68.9503 0.765261 68.4603C0.275273 67.9703 1.03257e-08 67.3057 0 66.6128L0 61.3872C0 60.6943 0.275273 60.0297 0.765261 59.5397C1.25525 59.0497 1.91982 58.7745 2.61277 58.7745ZM57.4808 58.7745C58.1738 58.7745 58.8384 59.0497 59.3284 59.5397C59.8183 60.0297 60.0936 60.6943 60.0936 61.3872V66.6128C60.0935 67.3057 59.8182 67.9701 59.3282 68.46C58.8383 68.95 58.1737 69.2252 57.4808 69.2252C56.788 69.2252 56.1234 68.95 55.6335 68.46C55.1435 67.9701 54.8682 67.3057 54.8681 66.6128V61.3872C54.8681 60.6943 55.1434 60.0297 55.6333 59.5397C56.1233 59.0497 56.7879 58.7745 57.4808 58.7745ZM125.413 58.7745C126.106 58.7745 126.77 59.0497 127.26 59.5397C127.75 60.0297 128.026 60.6943 128.026 61.3872V64C128.026 64.6929 127.75 65.3575 127.26 65.8475C126.77 66.3375 126.106 66.6128 125.413 66.6128C124.72 66.6128 124.055 66.3375 123.565 65.8475C123.075 65.3575 122.8 64.6929 122.8 64V61.3872C122.8 60.6943 123.075 60.0297 123.565 59.5397C124.055 59.0497 124.72 58.7745 125.413 58.7745Z" fill="url(#paint0_linear)"/>
</g>
<defs>
<linearGradient id="paint0_linear" x1="-6.5" y1="64" x2="141" y2="64" gradientUnits="userSpaceOnUse">
<stop stop-color="#999999"/>
<stop offset="0.5" stop-color="#999999" stop-opacity="0.29"/>
<stop offset="1" stop-color="#999999"/>
</linearGradient>
<clipPath id="clip0">
<rect width="128" height="128" fill="white"/>
</clipPath>
</defs>
</svg>
