<svg width="24" height="24" viewBox="0 0 24 24" fill="none" xmlns="http://www.w3.org/2000/svg">
<path d="M12.0002 22.8002C9.86416 22.8002 7.77609 22.1668 6.00004 20.9801C4.22399 19.7933 2.83973 18.1066 2.0223 16.1332C1.20487 14.1597 0.990999 11.9882 1.40772 9.89322C1.82444 7.79823 2.85304 5.87385 4.36345 4.36345C5.87385 2.85304 7.79823 1.82444 9.89322 1.40772C11.9882 0.990999 14.1597 1.20487 16.1332 2.0223C18.1066 2.83973 19.7933 4.22399 20.9801 6.00004C22.1668 7.77609 22.8002 9.86416 22.8002 12.0002C22.8002 14.8645 21.6623 17.6116 19.6369 19.6369C17.6116 21.6623 14.8645 22.8002 12.0002 22.8002ZM16.8602 7.6802C16.8602 7.53837 16.8323 7.39793 16.778 7.2669C16.7237 7.13587 16.6442 7.01681 16.5439 6.91652C16.4436 6.81624 16.3245 6.73668 16.1935 6.68241C16.0625 6.62813 15.922 6.6002 15.7802 6.6002H8.2202C7.93376 6.6002 7.65906 6.71398 7.45652 6.91652C7.25398 7.11906 7.1402 7.39376 7.1402 7.6802V16.3202C7.1402 16.6066 7.25398 16.8813 7.45652 17.0839C7.65906 17.2864 7.93376 17.4002 8.2202 17.4002H12.146C11.699 16.7687 11.4593 16.0139 11.4602 15.2402C11.4602 14.2377 11.8584 13.2762 12.5673 12.5673C13.2762 11.8584 14.2377 11.4602 15.2402 11.4602C15.8017 11.463 16.3554 11.5922 16.8602 11.8382V7.6802ZM16.4714 15.8007C16.7527 15.3547 16.8598 14.8206 16.7721 14.3007C16.6844 13.7807 16.4082 13.3112 15.9962 12.9821C15.5842 12.653 15.0653 12.4872 14.5388 12.5166C14.0123 12.5459 13.5151 12.7683 13.1422 13.1412C12.7694 13.514 12.547 14.0113 12.5177 14.5378C12.4883 15.0643 12.6541 15.5831 12.9832 15.9951C13.3123 16.4071 13.7817 16.6834 14.3017 16.771C14.8217 16.8587 15.3558 16.7516 15.8018 16.4703L17.276 17.944L17.9456 17.2744L16.4714 15.8007ZM14.6732 15.8547C14.439 15.8549 14.2101 15.7857 14.0153 15.6558C13.8205 15.5258 13.6686 15.341 13.5788 15.1248C13.4891 14.9085 13.4655 14.6705 13.511 14.4408C13.5566 14.2111 13.6692 14.0001 13.8347 13.8344C14.0002 13.6688 14.2112 13.5559 14.4408 13.5102C14.6704 13.4644 14.9085 13.4878 15.1248 13.5774C15.3412 13.6669 15.5261 13.8186 15.6562 14.0133C15.7863 14.208 15.8558 14.4369 15.8558 14.671C15.8555 14.9846 15.7308 15.2853 15.5091 15.5071C15.2874 15.7289 14.9868 15.8543 14.6732 15.8547ZM8.7602 9.3002H14.1602V10.3802H8.7602V9.3002ZM10.9202 12.5402H8.7602V11.4602H10.9202V12.5402Z" fill="#368CFE"/>
</svg>
