<svg width="34" height="34" viewBox="0 0 34 34" fill="none" xmlns="http://www.w3.org/2000/svg">
<path d="M0 4C0 1.79086 1.79086 0 4 0H30C32.2091 0 34 1.79086 34 4V30C34 32.2091 32.2091 34 30 34H4C1.79086 34 0 32.2091 0 30V4Z" fill="white"/>
<path d="M17 18C17.5523 18 18 17.5523 18 17C18 16.4477 17.5523 16 17 16C16.4477 16 16 16.4477 16 17C16 17.5523 16.4477 18 17 18Z" stroke="#666666" stroke-width="2" stroke-linecap="round" stroke-linejoin="round"/>
<path d="M24 18C24.5523 18 25 17.5523 25 17C25 16.4477 24.5523 16 24 16C23.4477 16 23 16.4477 23 17C23 17.5523 23.4477 18 24 18Z" stroke="#666666" stroke-width="2" stroke-linecap="round" stroke-linejoin="round"/>
<path d="M10 18C10.5523 18 11 17.5523 11 17C11 16.4477 10.5523 16 10 16C9.44772 16 9 16.4477 9 17C9 17.5523 9.44772 18 10 18Z" stroke="#666666" stroke-width="2" stroke-linecap="round" stroke-linejoin="round"/>
<path d="M4 1H30V-1H4V1ZM33 4V30H35V4H33ZM30 33H4V35H30V33ZM1 30V4H-1V30H1ZM4 33C2.34315 33 1 31.6569 1 30H-1C-1 32.7614 1.23858 35 4 35V33ZM33 30C33 31.6569 31.6569 33 30 33V35C32.7614 35 35 32.7614 35 30H33ZM30 1C31.6569 1 33 2.34315 33 4H35C35 1.23858 32.7614 -1 30 -1V1ZM4 -1C1.23858 -1 -1 1.23858 -1 4H1C1 2.34315 2.34315 1 4 1V-1Z" fill="#E4E7ED"/>
</svg>
