<svg width="24" height="24" viewBox="0 0 24 24" fill="none" xmlns="http://www.w3.org/2000/svg">
<path d="M12.0002 22.8002C6.03559 22.8002 1.2002 17.9648 1.2002 12.0002C1.2002 6.03559 6.03559 1.2002 12.0002 1.2002C17.9648 1.2002 22.8002 6.03559 22.8002 12.0002C22.8002 17.9648 17.9648 22.8002 12.0002 22.8002Z" fill="#FE9636"/>
<path d="M15.6867 7H8.26506C7.01205 7 6 8.04564 6 9.39004V14.1203C6 15.4149 7.01205 16.5104 8.26506 16.5104H9.37349L9.18072 18.3029C9.13253 18.5519 9.27711 18.8008 9.46988 18.9004C9.56626 18.9502 9.66265 19 9.80723 19C9.90361 19 10.0482 18.9502 10.1446 18.9004L13.5663 16.5104H15.7349C16.988 16.5104 18 15.4647 18 14.1203V9.43983C18 8.04564 16.988 7 15.6867 7ZM17.0843 14.1701C17.0843 14.8174 16.5542 15.3651 15.9277 15.3651H13.4217C13.2771 15.3651 13.1807 15.4149 13.0843 15.4647L10.4819 17.3071L10.6265 16.112C10.6265 15.9129 10.5783 15.7635 10.4819 15.6141C10.3855 15.4647 10.1928 15.4149 10 15.4149H8.12048C7.49398 15.4149 6.96386 14.8672 6.96386 14.2199V9.24066C6.96386 8.59336 7.49398 8.04564 8.12048 8.04564H15.9277C16.5542 8.04564 17.0843 8.59336 17.0843 9.24066V14.1701Z" fill="white"/>
<path d="M7.96777 11.4318C7.96777 11.5421 7.9895 11.6513 8.03171 11.7533C8.07393 11.8552 8.1358 11.9478 8.2138 12.0258C8.29181 12.1038 8.38441 12.1656 8.48632 12.2079C8.58823 12.2501 8.69746 12.2718 8.80777 12.2718C8.91808 12.2718 9.02731 12.2501 9.12923 12.2079C9.23114 12.1656 9.32374 12.1038 9.40174 12.0258C9.47974 11.9478 9.54162 11.8552 9.58383 11.7533C9.62605 11.6513 9.64777 11.5421 9.64777 11.4318C9.64777 11.209 9.55927 10.9954 9.40174 10.8378C9.24421 10.6803 9.03056 10.5918 8.80777 10.5918C8.58499 10.5918 8.37133 10.6803 8.2138 10.8378C8.05627 10.9954 7.96777 11.209 7.96777 11.4318ZM14.4078 11.4318C14.4078 11.6546 14.4963 11.8682 14.6538 12.0258C14.8113 12.1833 15.025 12.2718 15.2478 12.2718C15.4706 12.2718 15.6842 12.1833 15.8417 12.0258C15.9993 11.8682 16.0878 11.6546 16.0878 11.4318C16.0878 11.209 15.9993 10.9954 15.8417 10.8378C15.6842 10.6803 15.4706 10.5918 15.2478 10.5918C15.025 10.5918 14.8113 10.6803 14.6538 10.8378C14.4963 10.9954 14.4078 11.209 14.4078 11.4318ZM11.2158 11.4318C11.2158 11.5421 11.2375 11.6513 11.2797 11.7533C11.3219 11.8552 11.3838 11.9478 11.4618 12.0258C11.5398 12.1038 11.6324 12.1656 11.7343 12.2079C11.8362 12.2501 11.9455 12.2718 12.0558 12.2718C12.1661 12.2718 12.2753 12.2501 12.3772 12.2079C12.4791 12.1656 12.5717 12.1038 12.6497 12.0258C12.7277 11.9478 12.7896 11.8552 12.8318 11.7533C12.874 11.6513 12.8958 11.5421 12.8958 11.4318C12.8958 11.209 12.8073 10.9954 12.6497 10.8378C12.4922 10.6803 12.2786 10.5918 12.0558 10.5918C11.833 10.5918 11.6193 10.6803 11.4618 10.8378C11.3043 10.9954 11.2158 11.209 11.2158 11.4318Z" fill="white"/>
</svg>
