<svg width="18" height="18" viewBox="0 0 18 18" fill="none" xmlns="http://www.w3.org/2000/svg">
<g clip-path="url(#clip0)">
<path d="M3.37558 8.4375H0.00170898V9.5625H3.37558V8.4375ZM3.37558 5.0625H0.00170898V6.1875H3.37558V5.0625ZM15.7528 0H3.37558C2.13358 0 1.12671 1.00688 1.12671 2.25V2.8125H2.25058C2.25058 1.87987 3.00658 1.125 3.93921 1.125H15.1903C16.1196 1.125 16.8778 1.87987 16.8778 2.8125V15.1875C16.8778 16.119 16.1196 16.875 15.1903 16.875H3.93921C3.00658 16.875 2.25058 16.119 2.25058 15.1875H1.12671V15.75C1.12671 16.992 2.13358 18 3.37558 18H15.7528C16.9926 18 18.0006 16.992 18.0006 15.75V2.25C18.0006 1.00688 16.9926 0 15.7528 0ZM5.62558 12.9375H6.75058C6.75058 11.3861 8.00833 10.125 9.56308 10.125C11.1156 10.125 12.3756 11.3861 12.3756 12.9375H13.5006C13.5006 11.4233 12.6433 10.107 11.3912 9.45C11.9953 8.93362 12.3756 8.1675 12.3756 7.3125C12.3756 5.75887 11.1167 4.5 9.56308 4.5C8.00946 4.5 6.75058 5.75775 6.75058 7.3125C6.75058 8.1675 7.13083 8.93362 7.73496 9.45C6.48058 10.107 5.62558 11.4233 5.62558 12.9375ZM9.56308 5.625C10.4968 5.625 11.2506 6.37988 11.2506 7.3125C11.2506 8.24512 10.4968 9 9.56308 9C8.63158 9 7.87558 8.24512 7.87558 7.3125C7.87558 6.37988 8.63158 5.625 9.56308 5.625ZM3.37558 11.8125H0.00170898V12.9375H3.37558V11.8125Z" fill="white"/>
</g>
<defs>
<clipPath id="clip0">
<rect width="18" height="18" fill="white"/>
</clipPath>
</defs>
</svg>
