<svg width="18" height="18" viewBox="0 0 18 18" fill="none" xmlns="http://www.w3.org/2000/svg">
<path d="M8.42394 12.6497C8.7027 12.9293 9.15751 12.9293 9.43843 12.6497L12.3567 9.74734C12.4235 9.68132 12.4766 9.6027 12.5128 9.51603C12.549 9.42937 12.5676 9.33638 12.5676 9.24247C12.5676 9.14855 12.549 9.05556 12.5128 8.9689C12.4766 8.88223 12.4235 8.80361 12.3567 8.7376C12.2214 8.60384 12.0387 8.52907 11.8484 8.52961C11.6629 8.52961 11.4799 8.59865 11.3401 8.7376L9.64771 10.4218V1.51493C9.64771 1.1201 9.32667 0.800781 8.93011 0.800781C8.53312 0.800781 8.2125 1.1201 8.2125 1.51493V10.4218L6.52011 8.73587C6.38465 8.60228 6.20204 8.5274 6.01179 8.52745C5.82839 8.52745 5.645 8.59649 5.50519 8.7376C5.43839 8.80361 5.38536 8.88223 5.34916 8.9689C5.31297 9.05556 5.29433 9.14855 5.29433 9.24247C5.29433 9.33638 5.31297 9.42937 5.34916 9.51603C5.38536 9.6027 5.43839 9.68132 5.50519 9.74734L8.42394 12.6497ZM16.0622 17.1983C16.3627 17.1987 16.6511 17.08 16.8642 16.868C17.0773 16.6561 17.1976 16.3682 17.1988 16.0677V12.008C17.1988 11.662 16.9153 11.3797 16.5657 11.3797C16.2162 11.3797 15.9323 11.662 15.9323 12.0098V15.5684C15.9323 15.7743 15.764 15.9439 15.5556 15.9439H2.44274C2.34306 15.9439 2.24744 15.9043 2.17683 15.834C2.10622 15.7636 2.06638 15.6681 2.06603 15.5684V12.008C2.06603 11.6602 1.7821 11.378 1.43257 11.378C1.08305 11.378 0.80127 11.662 0.80127 12.008V16.0673C0.802298 16.3679 0.922556 16.6558 1.13565 16.8679C1.34874 17.0799 1.63726 17.1987 1.93787 17.1983H16.0622Z" fill="white"/>
</svg>
