<svg width="24" height="24" viewBox="0 0 24 24" fill="none" xmlns="http://www.w3.org/2000/svg">
<path d="M0 12C0 5.37258 5.37258 0 12 0C18.6274 0 24 5.37258 24 12C24 18.6274 18.6274 24 12 24C5.37258 24 0 18.6274 0 12Z" fill="#D0D0D0"/>
<g clip-path="url(#clip0)">
<path d="M18.1074 19.1998C17.966 19.1998 17.8305 19.1437 17.7305 19.0437C17.6306 18.9438 17.5745 18.8082 17.5745 18.6669C17.5712 17.9863 17.4243 17.314 17.1433 16.6941C16.8623 16.0742 16.4535 15.5207 15.9437 15.0697C15.4234 14.5929 14.8177 14.2186 14.1585 13.9665C12.7426 13.4268 11.1777 13.4268 9.76188 13.9665C9.10266 14.2186 8.49695 14.5929 7.9766 15.0697C7.46867 15.5222 7.06115 16.076 6.78028 16.6956C6.49941 17.3151 6.35143 17.9867 6.34587 18.6669C6.31699 18.7821 6.25044 18.8844 6.15678 18.9575C6.06313 19.0306 5.94774 19.0703 5.82894 19.0703C5.71015 19.0703 5.59476 19.0306 5.5011 18.9575C5.40744 18.8844 5.34089 18.7821 5.31201 18.6669C5.31456 17.8367 5.49634 17.0169 5.84493 16.2634C6.18832 15.5215 6.67768 14.8563 7.28381 14.3076C7.90467 13.7405 8.62821 13.2974 9.41548 13.002L9.57536 12.9433L9.78853 12.8634L9.59667 12.7408C8.82178 12.2258 8.23325 11.4751 7.91817 10.5996C7.60309 9.72419 7.5782 8.77057 7.84719 7.87988C8.11617 6.98919 8.66473 6.20875 9.41171 5.65403C10.1587 5.09932 11.0644 4.7998 11.9948 4.7998C12.9252 4.7998 13.8309 5.09932 14.5779 5.65403C15.3249 6.20875 15.8734 6.98919 16.1424 7.87988C16.4114 8.77057 16.3865 9.72419 16.0714 10.5996C15.7564 11.4751 15.1678 12.2258 14.3929 12.7408L14.2011 12.8634L14.4143 12.9433L14.5741 13.002C15.3614 13.2974 16.0849 13.7405 16.7058 14.3076C17.3119 14.8563 17.8013 15.5215 18.1447 16.2634C18.4933 17.0169 18.6751 17.8367 18.6776 18.6669C18.6776 18.8082 18.6215 18.9438 18.5215 19.0437C18.4216 19.1437 18.286 19.1998 18.1447 19.1998H18.1074ZM11.9841 5.85553C11.1078 5.85676 10.2672 6.20333 9.64464 6.82012C9.18127 7.28222 8.86557 7.87152 8.73755 8.51329C8.60954 9.15506 8.67498 9.82038 8.92558 10.4249C9.17618 11.0294 9.60065 11.5459 10.1452 11.9089C10.6897 12.2719 11.3297 12.465 11.9841 12.4637C12.8605 12.4625 13.7011 12.1159 14.3237 11.4991C14.787 11.037 15.1027 10.4477 15.2307 9.80596C15.3588 9.1642 15.2933 8.49887 15.0427 7.89434C14.7921 7.28982 14.3676 6.77332 13.8231 6.41035C13.2786 6.04738 12.6386 5.85428 11.9841 5.85553Z" fill="white"/>
</g>
<defs>
<clipPath id="clip0">
<rect width="14.4" height="14.4" fill="white" transform="translate(4.80005 4.7998)"/>
</clipPath>
</defs>
</svg>
