<svg width="24" height="24" viewBox="0 0 24 24" fill="none" xmlns="http://www.w3.org/2000/svg">
<path d="M12.0002 22.7992C6.03559 22.7992 1.2002 17.9638 1.2002 11.9992C1.2002 6.03462 6.03559 1.19922 12.0002 1.19922C17.9648 1.19922 22.8002 6.03462 22.8002 11.9992C22.8002 17.9638 17.9648 22.7992 12.0002 22.7992Z" fill="#FE9636"/>
<path d="M12 19C11.0553 19 10.1379 18.8154 9.2752 18.449C8.44121 18.0977 7.69336 17.5918 7.05078 16.9492C6.4082 16.3066 5.90234 15.5588 5.55098 14.7248C5.18457 13.8621 5 12.9447 5 12C5 11.0553 5.18457 10.1379 5.55098 9.2752C5.90234 8.44121 6.4082 7.69336 7.05078 7.05078C7.69336 6.4082 8.44121 5.90234 9.2752 5.55098C10.1379 5.18457 11.0553 5 12 5C12.9447 5 13.8621 5.18457 14.7248 5.55098C15.5588 5.90234 16.3066 6.4082 16.9492 7.05078C17.5918 7.69336 18.0963 8.44258 18.449 9.2752C18.8141 10.1379 19 11.0553 19 12C19 12.9447 18.8154 13.8621 18.449 14.7248C18.0977 15.5588 17.5918 16.3066 16.9492 16.9492C16.3066 17.5918 15.5574 18.0963 14.7248 18.449C13.8621 18.8154 12.9447 19 12 19ZM12 6.09375C8.74336 6.09375 6.09375 8.74336 6.09375 12C6.09375 15.2566 8.74336 17.9062 12 17.9062C15.2566 17.9062 17.9062 15.2566 17.9062 12C17.9062 8.74336 15.2566 6.09375 12 6.09375Z" fill="white"/>
<path d="M16.5635 17.1103C16.424 17.1103 16.2832 17.057 16.1766 16.9503L7.05059 7.82297C6.8373 7.60969 6.8373 7.26379 7.05059 7.04915C7.26387 6.8345 7.60977 6.83586 7.82441 7.04915L16.949 16.1765C17.1623 16.3898 17.1623 16.7357 16.949 16.9503C16.8424 17.0556 16.7029 17.1103 16.5635 17.1103Z" fill="white"/>
</svg>
