<svg width="18" height="18" viewBox="0 0 18 18" fill="none" xmlns="http://www.w3.org/2000/svg">
<path fill-rule="evenodd" clip-rule="evenodd" d="M6.86351 2.36399C7.03229 2.19521 7.26121 2.10039 7.4999 2.10039H10.4999C10.7386 2.10039 10.9675 2.19521 11.1363 2.36399C11.3051 2.53278 11.3999 2.7617 11.3999 3.00039V3.90039H6.5999V3.00039C6.5999 2.7617 6.69472 2.53278 6.86351 2.36399ZM5.3999 3.90039V3.00039C5.3999 2.44344 5.62115 1.90929 6.01498 1.51547C6.4088 1.12164 6.94295 0.900391 7.4999 0.900391H10.4999C11.0569 0.900391 11.591 1.12164 11.9848 1.51547C12.3787 1.90929 12.5999 2.44344 12.5999 3.00039V3.90039H14.2499H15.7499C16.0813 3.90039 16.3499 4.16902 16.3499 4.50039C16.3499 4.83176 16.0813 5.10039 15.7499 5.10039H14.8499V15.0004C14.8499 15.5573 14.6287 16.0915 14.2348 16.4853C13.841 16.8791 13.3069 17.1004 12.7499 17.1004H5.2499C4.69295 17.1004 4.1588 16.8791 3.76498 16.4853C3.37115 16.0915 3.1499 15.5573 3.1499 15.0004V5.10039H2.2499C1.91853 5.10039 1.6499 4.83176 1.6499 4.50039C1.6499 4.16902 1.91853 3.90039 2.2499 3.90039H3.7499H5.3999ZM4.3499 5.10039V15.0004C4.3499 15.2391 4.44472 15.468 4.61351 15.6368C4.78229 15.8056 5.01121 15.9004 5.2499 15.9004H12.7499C12.9886 15.9004 13.2175 15.8056 13.3863 15.6368C13.5551 15.468 13.6499 15.2391 13.6499 15.0004V5.10039H11.9999H5.9999H4.3499ZM7.4999 7.65039C7.83127 7.65039 8.0999 7.91902 8.0999 8.25039V12.7504C8.0999 13.0818 7.83127 13.3504 7.4999 13.3504C7.16853 13.3504 6.8999 13.0818 6.8999 12.7504V8.25039C6.8999 7.91902 7.16853 7.65039 7.4999 7.65039ZM11.0999 8.25039C11.0999 7.91902 10.8313 7.65039 10.4999 7.65039C10.1685 7.65039 9.8999 7.91902 9.8999 8.25039V12.7504C9.8999 13.0818 10.1685 13.3504 10.4999 13.3504C10.8313 13.3504 11.0999 13.0818 11.0999 12.7504V8.25039Z" fill="#FE3636"/>
</svg>
