<svg width="24" height="24" viewBox="0 0 24 24" fill="none" xmlns="http://www.w3.org/2000/svg">
<path d="M12.0002 22.7992C6.03559 22.7992 1.2002 17.9638 1.2002 11.9992C1.2002 6.03462 6.03559 1.19922 12.0002 1.19922C17.9648 1.19922 22.8002 6.03462 22.8002 11.9992C22.8002 17.9638 17.9648 22.7992 12.0002 22.7992Z" fill="#2BD990"/>
<path d="M16.0739 8.96078C14.952 7.83256 13.4712 7.26839 11.9968 7.26839V5.19141L9.27866 7.90948L11.9967 10.6276V8.55054C13.1442 8.55054 14.2917 8.98652 15.17 9.86471C16.9201 11.6148 16.9201 14.4611 15.17 16.2112C14.2917 17.0894 13.1442 17.5253 11.9967 17.5253C11.3749 17.5253 10.7531 17.3907 10.1761 17.1343L9.22098 18.0894C10.0864 18.5638 11.0416 18.8074 11.9967 18.8074C13.4711 18.8074 14.952 18.2433 16.0738 17.1151C18.3304 14.8649 18.3304 11.2109 16.0739 8.96078ZM13.332 11.7377L13.0479 11.3424C12.9552 11.2135 12.726 11.2196 12.5361 11.3562L8.61323 14.1758L7.04138 12.604C6.95154 12.5141 6.78763 12.5323 6.6753 12.6446L6.33115 12.9888C6.21883 13.1011 6.20062 13.265 6.29049 13.3549L8.33042 15.3948C8.39826 15.4626 8.50829 15.4688 8.60648 15.4194C8.68397 15.4069 8.76637 15.3735 8.8426 15.3187L13.1559 12.2185C13.3459 12.0819 13.4247 11.8667 13.332 11.7377Z" fill="white"/>
</svg>
