<svg width="18" height="18" viewBox="0 0 18 18" fill="none" xmlns="http://www.w3.org/2000/svg">
<path d="M15.8316 11.2406C15.5378 11.2406 15.2895 11.4352 15.2083 11.7024L15.2079 11.7026C14.2859 14.1077 11.9552 15.8152 9.22557 15.8152C5.68847 15.8152 2.82108 12.9478 2.82108 9.41081C2.82108 5.87371 5.68847 3.00631 9.22557 3.00631C9.90073 3.00631 10.5514 3.11093 11.1624 3.30456L10.5812 4.47468C10.515 4.60793 10.5693 4.76962 10.7026 4.83581C10.7513 4.86001 10.8037 4.86793 10.854 4.86197L12.7354 4.74416L14.6397 4.62497L14.6403 4.62374C14.7294 4.61482 14.8122 4.56192 14.855 4.47574C14.8987 4.38778 14.8896 4.28758 14.8402 4.21049L14.8405 4.20999L13.7881 2.6251L12.738 1.04364C12.7127 1.00494 12.6773 0.972129 12.6328 0.950067C12.4996 0.883865 12.3379 0.938236 12.2717 1.0715L11.7331 2.15575C10.9501 1.88679 10.11 1.74057 9.23569 1.74057C4.99119 1.74057 1.55029 5.18143 1.55029 9.42596C1.55029 13.6705 4.99116 17.1114 9.23569 17.1114C12.5426 17.1114 15.3262 15.1201 16.4096 12.1927C16.4564 12.1027 16.4831 12.0005 16.4831 11.892C16.4831 11.5323 16.1914 11.2406 15.8316 11.2406Z" fill="white"/>
<g clip-path="url(#clip0)">
<path d="M5.625 10.125L12.75 6.75L9.375 13.875L8.625 10.875L5.625 10.125Z" stroke="white" stroke-width="1.2" stroke-linecap="round" stroke-linejoin="round"/>
</g>
<defs>
<clipPath id="clip0">
<rect width="9" height="9" fill="white" transform="translate(4.5 6)"/>
</clipPath>
</defs>
</svg>
