<svg width="18" height="18" viewBox="0 0 18 18" fill="none" xmlns="http://www.w3.org/2000/svg">
<path d="M1.43257 11.3494C1.7821 11.3494 2.06603 11.6329 2.06603 11.9828V15.5609C2.06603 15.7693 2.23605 15.9381 2.44274 15.9381H15.5556C15.6555 15.9378 15.7512 15.898 15.8218 15.8273C15.8924 15.7566 15.9322 15.6608 15.9323 15.5609V11.9846C15.9363 11.8195 16.0047 11.6625 16.1229 11.5471C16.241 11.4317 16.3995 11.367 16.5647 11.3667C16.7298 11.3665 16.8885 11.4308 17.007 11.5459C17.1254 11.661 17.1942 11.8177 17.1988 11.9828V16.0623C17.1985 16.3637 17.0787 16.6527 16.8656 16.8658C16.6525 17.0789 16.3635 17.1987 16.0622 17.1989H1.93787C1.6365 17.1987 1.34753 17.0789 1.13443 16.8658C0.921321 16.6527 0.801498 16.3637 0.80127 16.0623V11.9828C0.80127 11.635 1.08305 11.3494 1.43257 11.3494ZM8.42394 1.01248C8.49046 0.945688 8.5695 0.892694 8.65655 0.856533C8.7436 0.820372 8.83693 0.801758 8.93119 0.801758C9.02544 0.801758 9.11878 0.820372 9.20582 0.856533C9.29287 0.892694 9.37191 0.945688 9.43843 1.01248L12.3567 3.92907C12.4575 4.02928 12.5262 4.15721 12.5541 4.29656C12.5819 4.43592 12.5677 4.58041 12.5132 4.71166C12.4587 4.84291 12.3664 4.95498 12.248 5.03362C12.1296 5.11226 11.9905 5.15391 11.8484 5.15327C11.6629 5.15327 11.4799 5.08337 11.3401 4.94399L9.64771 3.25116V12.2029C9.64771 12.3932 9.57211 12.5757 9.43753 12.7103C9.30295 12.8449 9.12043 12.9205 8.93011 12.9205C8.73979 12.9205 8.55726 12.8449 8.42268 12.7103C8.28811 12.5757 8.2125 12.3932 8.2125 12.2029V3.25116L6.52011 4.94571C6.3849 5.07978 6.2022 5.155 6.01179 5.155C5.91752 5.15527 5.82415 5.13671 5.73715 5.1004C5.65016 5.06409 5.57129 5.01077 5.50519 4.94356C5.43845 4.87701 5.3855 4.79796 5.34938 4.71091C5.31325 4.62387 5.29465 4.53056 5.29465 4.43631C5.29465 4.34207 5.31325 4.24876 5.34938 4.16171C5.3855 4.07467 5.43845 3.99561 5.50519 3.92907L8.42394 1.01248Z" fill="#368CFE"/>
</svg>
