<svg width="24" height="24" viewBox="0 0 24 24" fill="none" xmlns="http://www.w3.org/2000/svg">
<path d="M12.0002 22.7992C6.03559 22.7992 1.2002 17.9638 1.2002 11.9992C1.2002 6.03462 6.03559 1.19922 12.0002 1.19922C17.9648 1.19922 22.8002 6.03462 22.8002 11.9992C22.8002 17.9638 17.9648 22.7992 12.0002 22.7992Z" fill="#E5E5E5"/>
<path d="M17.8148 9.88621L15.6435 7.20606C15.475 7.06169 15.328 7 15.1536 7C14.9647 7 14.7939 7.07219 14.6744 7.20344L12.466 9.87308C12.3908 10.0135 12.3179 10.1671 12.3179 10.3705C12.3179 10.7328 12.6059 11.0491 12.9345 11.0491C13.1006 11.0491 13.2834 10.9572 13.422 10.805L14.5381 9.46489V16.3214C14.5381 16.7336 14.7807 17 15.1547 17C15.5228 17 15.7809 16.7204 15.7809 16.3214V9.4662L16.8994 10.8102C17.0524 10.9782 17.1838 11.0517 17.3368 11.0517C17.7024 11.0517 18 10.7472 18 10.3731C18 10.1868 17.9355 10.0188 17.8148 9.88621ZM10.1514 7.68775H6.65126C6.29158 7.68775 6 8.00932 6 8.40438C6 8.80076 6.29158 9.12101 6.65126 9.12101H10.1514C10.5111 9.12101 10.8026 8.79945 10.8026 8.40438C10.8026 8.00932 10.5111 7.68775 10.1514 7.68775ZM10.1514 11.284H6.65126C6.29158 11.284 6 11.6056 6 12.0007C6 12.397 6.29158 12.7173 6.65126 12.7173H10.1514C10.5111 12.7173 10.8026 12.3957 10.8026 12.0007C10.8026 11.6043 10.5111 11.284 10.1514 11.284ZM10.1514 14.879H6.65126C6.29158 14.879 6 15.2006 6 15.5956C6 15.992 6.29158 16.3122 6.65126 16.3122H10.1514C10.5111 16.3122 10.8026 15.9907 10.8026 15.5956C10.8026 15.2006 10.5111 14.879 10.1514 14.879Z" fill="white"/>
</svg>
