<svg width="24" height="24" viewBox="0 0 24 24" fill="none" xmlns="http://www.w3.org/2000/svg">
<path d="M12.0002 22.7992C6.03559 22.7992 1.2002 17.9638 1.2002 11.9992C1.2002 6.03462 6.03559 1.19922 12.0002 1.19922C17.9648 1.19922 22.8002 6.03462 22.8002 11.9992C22.8002 17.9638 17.9648 22.7992 12.0002 22.7992Z" fill="#FE9636"/>
<path d="M6.18522 14.1138L8.3565 16.7939C8.525 16.9383 8.67198 17 8.84645 17C9.03525 17 9.20613 16.9278 9.32563 16.7966L11.534 14.1269C11.6092 13.9865 11.6821 13.8329 11.6821 13.6295C11.6821 13.2672 11.3941 12.9509 11.0655 12.9509C10.8994 12.9509 10.7166 13.0428 10.578 13.195L9.46186 14.5351V7.67857C9.46186 7.26644 9.21928 7 8.84525 7C8.4772 7 8.21908 7.27956 8.21908 7.67857V14.5338L7.10058 13.1898C6.94762 13.0218 6.81617 12.9483 6.66321 12.9483C6.29755 12.9483 6 13.2528 6 13.6269C6 13.8132 6.06453 13.9812 6.18522 14.1138ZM13.8486 16.3122H17.3487C17.7084 16.3122 18 15.9907 18 15.5956C18 15.1992 17.7084 14.879 17.3487 14.879H13.8486C13.4889 14.879 13.1974 15.2006 13.1974 15.5956C13.1974 15.9907 13.4889 16.3122 13.8486 16.3122ZM13.8486 12.716H17.3487C17.7084 12.716 18 12.3944 18 11.9993C18 11.603 17.7084 11.2827 17.3487 11.2827H13.8486C13.4889 11.2827 13.1974 11.6043 13.1974 11.9993C13.1974 12.3957 13.4889 12.716 13.8486 12.716ZM13.8486 9.12101H17.3487C17.7084 9.12101 18 8.79945 18 8.40438C18 8.00801 17.7084 7.68775 17.3487 7.68775H13.8486C13.4889 7.68775 13.1974 8.00932 13.1974 8.40438C13.1974 8.79945 13.4889 9.12101 13.8486 9.12101Z" fill="white"/>
</svg>
