<svg width="18" height="18" viewBox="0 0 18 18" fill="none" xmlns="http://www.w3.org/2000/svg">
<path d="M8.25 3.75H3.58333C3.22971 3.75 2.89057 3.89048 2.64052 4.14052C2.39048 4.39057 2.25 4.72971 2.25 5.08333V14.4167C2.25 14.7703 2.39048 15.1094 2.64052 15.3595C2.89057 15.6095 3.22971 15.75 3.58333 15.75H12.9167C13.2703 15.75 13.6094 15.6095 13.8595 15.3595C14.1095 15.1094 14.25 14.7703 14.25 14.4167V9.75" stroke="#368CFE" stroke-width="1.2" stroke-linecap="round" stroke-linejoin="round"/>
<path d="M13.2497 2.67899C13.5244 2.40431 13.8969 2.25 14.2853 2.25C14.6738 2.25 15.0463 2.40431 15.321 2.67899C15.5957 2.95366 15.75 3.3262 15.75 3.71466C15.75 4.10311 15.5957 4.47565 15.321 4.75032L8.76178 11.3096L6 12L6.69045 9.23822L13.2497 2.67899Z" stroke="#368CFE" stroke-width="1.2" stroke-linecap="round" stroke-linejoin="round"/>
</svg>
