<svg width="32" height="32" viewBox="0 0 32 32" fill="none" xmlns="http://www.w3.org/2000/svg">
<path d="M0 16C0 7.16344 7.16344 0 16 0C24.8366 0 32 7.16344 32 16C32 24.8366 24.8366 32 16 32C7.16344 32 0 24.8366 0 16Z" fill="#9A4EE7"/>
<path d="M16.0001 7C11.9136 7 8.70278 10.6973 9.14061 14.5892C9.4325 17.2162 10.746 18.5784 12.3028 20.7676C13.2757 22.1297 14.346 23.4919 15.5136 24.7568C15.7568 25 16.2433 25 16.4865 24.7568C17.6055 23.5892 18.5784 22.3243 19.5514 21.0108C21.1082 18.8703 22.519 17.4108 22.8595 14.7838C23.2974 10.7946 20.1352 7.09729 16.0001 7ZM21.3028 15.3189C20.8163 17.7027 19.3568 18.8703 17.946 20.8162C17.3136 21.6919 16.6325 22.5189 15.9514 23.2973C15.2703 22.5189 14.5893 21.6919 13.9568 20.8162C12.4974 18.8703 11.1352 17.7027 10.6001 15.3189C9.82169 11.9135 12.2541 8.31351 15.9514 8.31351C19.746 8.4108 22.0325 11.9135 21.3028 15.3189ZM15.9514 11.0378C14.2001 10.9405 12.9352 12.4973 12.8866 14.0541C12.7893 15.7568 14.346 16.973 15.9514 17.0703C17.6055 17.1676 18.8703 15.7568 19.0163 14.2487V14.0541V13.8595C18.8703 12.254 17.6541 11.0865 15.9514 11.0378ZM14.2487 14.0541C14.1514 11.8649 17.6055 11.8649 17.7514 14.0541C17.6055 16.2432 14.346 16.2432 14.2487 14.0541Z" fill="white"/>
</svg>
