<svg width="24" height="24" viewBox="0 0 24 24" fill="none" xmlns="http://www.w3.org/2000/svg">
<path d="M0 12C0 5.37258 5.37258 0 12 0C18.6274 0 24 5.37258 24 12C24 18.6274 18.6274 24 12 24C5.37258 24 0 18.6274 0 12Z" fill="black" fill-opacity="0.6"/>
<path d="M6.75 8.5H7.91667H17.25" stroke="white" stroke-width="1.2" stroke-linecap="round" stroke-linejoin="round"/>
<path d="M9.66699 8.50002V7.33335C9.66699 7.02393 9.78991 6.72719 10.0087 6.5084C10.2275 6.2896 10.5242 6.16669 10.8337 6.16669H13.167C13.4764 6.16669 13.7732 6.2896 13.992 6.5084C14.2107 6.72719 14.3337 7.02393 14.3337 7.33335V8.50002M16.0837 8.50002V16.6667C16.0837 16.9761 15.9607 17.2729 15.742 17.4916C15.5232 17.7104 15.2264 17.8334 14.917 17.8334H9.08366C8.77424 17.8334 8.47749 17.7104 8.2587 17.4916C8.03991 17.2729 7.91699 16.9761 7.91699 16.6667V8.50002H16.0837Z" stroke="white" stroke-width="1.2" stroke-linecap="round" stroke-linejoin="round"/>
<path d="M10.833 11.4167V14.9167" stroke="white" stroke-width="1.2" stroke-linecap="round" stroke-linejoin="round"/>
<path d="M13.167 11.4167V14.9167" stroke="white" stroke-width="1.2" stroke-linecap="round" stroke-linejoin="round"/>
</svg>
