<svg width="14" height="14" viewBox="0 0 14 14" fill="none" xmlns="http://www.w3.org/2000/svg">
<path d="M9.65079 13H2.34921C1.6045 13 1 12.3995 1 11.6597V4.34034C1 3.60053 1.6045 3 2.34921 3H9.65079C10.3955 3 11 3.60053 11 4.34034V11.6597C11 12.3995 10.3955 13 9.65079 13ZM2.50794 12.3167H9.49206C9.94444 12.3167 10.3122 11.9514 10.3122 11.502V4.49803C10.3122 4.04862 9.94444 3.68331 9.49206 3.68331H2.50794C2.05556 3.68331 1.68783 4.04862 1.68783 4.49803V11.502C1.68783 11.9514 2.05556 12.3167 2.50794 12.3167Z" fill="#666666"/>
<path d="M11.6508 1H4.34921C3.6045 1 3 1.60053 3 2.34034V3.36531H3.68783V2.49803C3.68783 2.04862 4.05556 1.68331 4.50794 1.68331H11.4921C11.9444 1.68331 12.3122 2.04862 12.3122 2.49803V9.50197C12.3122 9.95138 11.9444 10.3167 11.4921 10.3167H10.7606V11H11.6508C12.3955 11 13 10.3995 13 9.65966V2.34034C13 1.60053 12.3955 1 11.6508 1Z" fill="#666666"/>
</svg>
