<svg width="32" height="32" viewBox="0 0 32 32" fill="none" xmlns="http://www.w3.org/2000/svg">
<path d="M0 16C0 7.16344 7.16344 0 16 0C24.8366 0 32 7.16344 32 16C32 24.8366 24.8366 32 16 32C7.16344 32 0 24.8366 0 16Z" fill="#36A9FC"/>
<path d="M12.6494 14.2449H19.3507C19.7087 14.2449 20 13.9657 20 13.6224C20 13.2792 19.7087 13 19.3507 13H12.6494C12.2913 13 12 13.2792 12 13.6224C12 13.9657 12.2913 14.2449 12.6494 14.2449ZM12.6494 17H19.3507C19.7087 17 20 16.7208 20 16.3776C20 16.0343 19.7087 15.7551 19.3507 15.7551H12.6494C12.2913 15.7551 12 16.0343 12 16.3776C12 16.7208 12.2913 17 12.6494 17Z" fill="white"/>
<path d="M22.858 8H9.14198C7.96089 8 7 8.95857 7 10.1368V19.9067C7 21.0849 7.96089 22.0435 9.14198 22.0435H9.94188V23.2431C9.94188 23.6604 10.2821 24 10.7002 24C10.8127 24 10.9226 23.9751 11.0269 23.9258L14.6125 22.2172C14.8511 22.1035 15.1172 22.0435 15.3821 22.0435H22.858C24.0391 22.0435 25 21.0849 25 19.9067V10.1368C25 8.95857 24.0391 8 22.858 8ZM10.1162 20.7174H9.14198C8.69387 20.7174 8.3293 20.3537 8.3293 19.9067V10.1368C8.3293 9.68978 8.69385 9.32609 9.14198 9.32609H22.858C23.3061 9.32609 23.6707 9.68976 23.6707 10.1368V19.9067C23.6707 20.3537 23.3061 20.7174 22.858 20.7174H15.3821C14.9207 20.7174 14.4564 20.8224 14.0396 21.021L11.2712 22.3397V21.8696C11.2712 21.2343 10.7531 20.7174 10.1162 20.7174Z" fill="white"/>
</svg>
