<svg width="32" height="32" viewBox="0 0 32 32" fill="none" xmlns="http://www.w3.org/2000/svg">
<path d="M0 16C0 7.16344 7.16344 0 16 0C24.8366 0 32 7.16344 32 16C32 24.8366 24.8366 32 16 32C7.16344 32 0 24.8366 0 16Z" fill="#BF9058"/>
<path d="M14.7489 9.89802L16.4049 11.554C17.0529 12.202 17.4219 13.084 17.4219 14.002C17.4219 14.92 17.0529 15.802 16.4049 16.45C16.1169 16.738 16.1169 17.215 16.4049 17.503C16.6929 17.791 17.1699 17.791 17.4579 17.503C19.3839 15.568 19.3839 12.436 17.4579 10.501L15.8109 8.85402C13.8759 6.91902 10.7439 6.91902 8.81786 8.84502C6.88286 10.78 6.88286 13.912 8.80886 15.838L10.4649 17.494C10.5999 17.629 10.7799 17.71 10.9689 17.701C11.1669 17.701 11.3559 17.629 11.4999 17.494C11.7879 17.197 11.7879 16.738 11.4999 16.441L9.85286 14.794C9.19586 14.146 8.82686 13.264 8.82686 12.346C8.82686 11.428 9.19586 10.546 9.85286 9.89802C11.2209 8.59302 13.3719 8.59302 14.7489 9.89802Z" fill="white"/>
<path d="M23.2 16.171L21.544 14.515C21.256 14.227 20.779 14.227 20.491 14.515C20.203 14.803 20.203 15.28 20.491 15.568L22.147 17.206C23.497 18.556 23.506 20.752 22.156 22.102C20.806 23.452 18.61 23.461 17.26 22.111L15.604 20.455C14.956 19.807 14.587 18.925 14.587 18.007C14.587 17.089 14.956 16.207 15.604 15.559C15.892 15.271 15.892 14.794 15.604 14.506C15.316 14.218 14.839 14.218 14.551 14.506C13.615 15.433 13.093 16.693 13.093 18.007C13.093 19.321 13.615 20.581 14.551 21.508L16.198 23.155C17.125 24.091 18.394 24.613 19.708 24.613C21.697 24.604 23.497 23.398 24.253 21.553C25.009 19.708 24.604 17.584 23.2 16.171Z" fill="white"/>
</svg>
