<svg width="18" height="18" viewBox="0 0 18 18" fill="none" xmlns="http://www.w3.org/2000/svg">
<path d="M5.91441 6.27188L9 3.33822L12.0856 6.27188C12.1395 6.32338 12.2037 6.36428 12.2746 6.39221C12.3456 6.42014 12.4217 6.43452 12.4986 6.43452C12.5755 6.43452 12.6516 6.42014 12.7225 6.39221C12.7935 6.36428 12.8577 6.32338 12.9116 6.27188C13.021 6.16726 13.0823 6.02655 13.0823 5.87999C13.0823 5.73343 13.021 5.59273 12.9116 5.48811L9.41254 2.16213C9.35876 2.11079 9.29463 2.07001 9.22388 2.04217C9.15314 2.01434 9.07719 2 9.00047 2C8.92375 2 8.84781 2.01434 8.77706 2.04217C8.70631 2.07001 8.64218 2.11079 8.5884 2.16213L5.09028 5.48811C4.98089 5.59273 4.91961 5.73343 4.91961 5.87999C4.91961 6.02655 4.98089 6.16726 5.09028 6.27188C5.31801 6.48818 5.68761 6.48818 5.91441 6.27188ZM12.0856 11.7276L9 14.6613L5.91441 11.7276C5.86064 11.6763 5.79651 11.6355 5.72576 11.6077C5.65501 11.5798 5.57906 11.5655 5.50234 11.5655C5.42563 11.5655 5.34968 11.5798 5.27893 11.6077C5.20818 11.6355 5.14405 11.6763 5.09028 11.7276C4.98089 11.8322 4.91961 11.9729 4.91961 12.1195C4.91961 12.266 4.98089 12.4068 5.09028 12.5114L8.5884 15.8374C8.64227 15.8889 8.70654 15.9298 8.77745 15.9577C8.84836 15.9856 8.9245 16 9.0014 16C9.07831 16 9.15444 15.9856 9.22535 15.9577C9.29627 15.9298 9.36054 15.8889 9.4144 15.8374L12.9097 12.5114C13.0191 12.4068 13.0804 12.266 13.0804 12.1195C13.0804 11.9729 13.0191 11.8322 12.9097 11.7276C12.856 11.6763 12.7918 11.6355 12.7211 11.6077C12.6503 11.5798 12.5744 11.5655 12.4977 11.5655C12.4209 11.5655 12.345 11.5798 12.2742 11.6077C12.2035 11.6355 12.1394 11.6763 12.0856 11.7276ZM2.58242 8.31756H15.4176C15.5729 8.31663 15.7214 8.25792 15.8306 8.15431C15.9398 8.05071 16.0007 7.91068 16 7.76498C16 7.45848 15.7387 7.21065 15.4176 7.21065H2.58242C2.50545 7.21111 2.42932 7.22578 2.3584 7.25385C2.28747 7.28191 2.22313 7.3228 2.16905 7.3742C2.11497 7.42559 2.07221 7.48648 2.0432 7.55338C2.0142 7.62028 1.99953 7.69188 2.00002 7.7641C2.00002 8.0706 2.26135 8.31756 2.58242 8.31756ZM15.4176 9.66003H2.58242C2.50537 9.66049 2.42917 9.6752 2.35818 9.70332C2.28719 9.73143 2.22281 9.77241 2.16872 9.82389C2.11462 9.87538 2.07188 9.93637 2.04293 10.0034C2.01399 10.0704 1.9994 10.1421 2.00002 10.2144C2.00002 10.5209 2.26135 10.7678 2.58242 10.7678H15.4176C15.4946 10.7674 15.5707 10.7527 15.6416 10.7246C15.7125 10.6966 15.7769 10.6557 15.831 10.6043C15.885 10.5529 15.9278 10.492 15.9568 10.4251C15.9858 10.3582 16.0005 10.2866 16 10.2144C16 9.90786 15.7387 9.66003 15.4176 9.66003Z" fill="#666666"/>
</svg>
