<svg width="32" height="32" viewBox="0 0 32 32" fill="none" xmlns="http://www.w3.org/2000/svg">
<path d="M0 16C0 7.16344 7.16344 0 16 0C24.8366 0 32 7.16344 32 16C32 24.8366 24.8366 32 16 32C7.16344 32 0 24.8366 0 16Z" fill="#25CDAF"/>
<path d="M22.6678 24.1263C21.418 25.3934 16.7457 24.1756 12.14 19.586C7.51769 14.9803 6.33326 10.3093 7.61639 9.05815C8.70212 7.97242 10.0346 6.0644 12.0086 8.54863C13.9827 11.0322 13.029 11.7071 11.8766 12.8255C11.087 13.5985 12.7489 15.5725 14.4429 17.2831C16.1702 18.9771 18.1275 20.639 18.9011 19.8494C20.0362 18.7143 20.7265 17.7606 23.1613 19.718C25.6456 21.7247 23.7536 23.0739 22.6678 24.1263Z" fill="white"/>
</svg>
