<svg width="24" height="24" viewBox="0 0 24 24" fill="none" xmlns="http://www.w3.org/2000/svg">
<path d="M12 0C5.38338 0 0 5.38338 0 12C0 18.6166 5.38338 24 12 24C18.6166 24 24 18.6166 24 12C24 5.38338 18.6166 0 12 0ZM12 22.1538C6.40154 22.1538 1.84615 17.5985 1.84615 12C1.84615 6.40154 6.40154 1.84615 12 1.84615C17.5985 1.84615 22.1538 6.40154 22.1538 12C22.1538 17.5985 17.5985 22.1538 12 22.1538Z" fill="#2BD990"/>
<path d="M11.456 7.01297C11.346 6.92455 11.216 6.87149 11.0804 6.85967C10.9449 6.84785 10.809 6.87772 10.6878 6.94598C10.5666 7.01424 10.4648 7.11822 10.3938 7.24644C10.3227 7.37465 10.2851 7.5221 10.2852 7.67247V16.3284C10.2853 16.4787 10.323 16.626 10.3941 16.7541C10.4652 16.8822 10.5669 16.9861 10.6881 17.0542C10.8093 17.1224 10.9451 17.1522 11.0806 17.1403C11.2161 17.1285 11.3461 17.0754 11.456 16.987L16.8384 12.6591C16.9325 12.5835 17.0091 12.4843 17.0619 12.3697C17.1148 12.2551 17.1423 12.1282 17.1423 11.9996C17.1423 11.871 17.1148 11.7441 17.0619 11.6295C17.0091 11.5149 16.9325 11.4157 16.8384 11.3401L11.456 7.01297Z" fill="#2BD990"/>
</svg>
