<svg width="14" height="14" viewBox="0 0 14 14" fill="none" xmlns="http://www.w3.org/2000/svg">
<path d="M13.3979 4.33664C13.4608 4.30471 13.5132 4.25561 13.5493 4.19505C13.5853 4.13448 13.6034 4.06493 13.6015 3.99448V3.70524L7.22674 0.07196L7.00722 0L0.590178 3.65428C0.527327 3.68618 0.474828 3.73527 0.438791 3.79585C0.402754 3.85642 0.384661 3.92598 0.386618 3.99644V4.28596L6.99462 8.07408L13.3979 4.33664ZM6.99378 0.93884L12.3978 4.03984L6.99378 7.04284L1.67574 4.03928L6.99378 0.93884Z" fill="#368CFE"/>
<path d="M0.467774 7.1232L6.99485 11.065L13.5091 7.22232C13.6871 7.09772 13.7532 6.86308 13.6771 6.68192C13.6378 6.62252 13.5845 6.57379 13.5218 6.54011C13.4591 6.50644 13.389 6.48888 13.3178 6.489C13.2615 6.48864 13.2056 6.49949 13.1535 6.52092L6.99345 10.052L0.858094 6.44C0.801528 6.42141 0.742358 6.41196 0.682814 6.412C0.540294 6.412 0.419054 6.47052 0.374814 6.559C0.205974 6.91824 0.324974 7.04452 0.467774 7.1232Z" fill="#368CFE"/>
<path d="M13.316 9.42395C13.2597 9.42365 13.2039 9.4345 13.1519 9.45587L6.99356 12.9881L0.857915 9.37607C0.801299 9.35728 0.742006 9.34783 0.682355 9.34807C0.540115 9.34807 0.418875 9.40631 0.374355 9.49423C0.206355 9.85487 0.323955 9.98087 0.466755 10.0593L6.99495 14L13.5092 10.1576C13.6867 10.033 13.7528 9.79859 13.6758 9.61799C13.6366 9.55828 13.5833 9.50927 13.5204 9.47539C13.4576 9.44151 13.3873 9.42383 13.316 9.42395Z" fill="#368CFE"/>
</svg>
