<svg width="32" height="32" viewBox="0 0 32 32" fill="none" xmlns="http://www.w3.org/2000/svg">
<path d="M4.64 18.1833H12.32L14.08 23.693H16.96L10.08 2.8H6.88L0 23.883H2.88L4.64 18.1833ZM7.84 7.54672C8 6.97912 8.16 6.40888 8.32 5.64856H8.48C8.48 5.83864 8.64 6.2188 8.96 7.1692C8.96 7.35928 9.12 7.54672 9.12 7.54672C9.12 7.7368 10.08 10.3979 11.68 15.7149H5.28C7.04 10.3979 7.84 7.7368 7.84 7.54672ZM17.28 10.7781H32V13.4366H17.28V10.7781ZM0 26.5389H32V29.2H0V26.5415V26.5389ZM17.28 18.7535H32V21.412H17.28V18.7535ZM17.28 2.99008H32V5.64856H17.28V2.99008Z" fill="#666666"/>
</svg>
