<svg width="24" height="24" viewBox="0 0 24 24" fill="none" xmlns="http://www.w3.org/2000/svg">
<g clip-path="url(#clip0)">
<path d="M9.24231 22.158V14.7877H1.86958V22.158H9.24231ZM9.24231 24H1.86958C0.851572 24 0.0275879 23.1748 0.0275879 22.158V14.7877C0.0275879 13.7697 0.852769 12.9445 1.86958 12.9445H9.24231C10.2603 12.9445 11.0855 13.7697 11.0855 14.7877V22.158C11.0855 23.176 10.2591 24 9.24231 24ZM9.24231 9.25931V1.88897H1.86958V9.25931H9.24231ZM9.24231 11.1025H1.86958C0.851572 11.1025 0.0275879 10.2773 0.0275879 9.25931V1.88897C0.0287855 0.870968 0.853967 0.0469838 1.87077 0.0469838H9.24231C10.2603 0.0469838 11.0855 0.872165 11.0855 1.88897V9.25931C11.0855 10.2773 10.2591 11.1025 9.24231 11.1025ZM22.1003 22.1568V14.7877H14.7299V22.158H22.1003V22.1568ZM22.1003 24H14.7299C13.7119 24 12.888 23.1748 12.888 22.158V14.7877C12.888 13.7697 13.7131 12.9445 14.7299 12.9445H22.1003C23.1183 12.9445 23.9435 13.7697 23.9435 14.7877V22.158C23.9435 23.176 23.1171 24 22.1003 24ZM19.3361 4.65315V0.969175C19.3425 0.844277 19.3234 0.719389 19.28 0.602103C19.2366 0.484818 19.1698 0.377588 19.0836 0.286932C18.9975 0.196276 18.8938 0.12409 18.7789 0.0747636C18.6639 0.0254368 18.5402 0 18.4151 0C18.2901 0 18.1663 0.0254368 18.0514 0.0747636C17.9365 0.12409 17.8328 0.196276 17.7466 0.286932C17.6605 0.377588 17.5937 0.484818 17.5503 0.602103C17.5069 0.719389 17.4878 0.844277 17.4941 0.969175V4.65435H13.809C13.5703 4.66295 13.3443 4.76382 13.1785 4.93571C13.0126 5.1076 12.92 5.33711 12.92 5.57594C12.92 5.81477 13.0126 6.04428 13.1785 6.21617C13.3443 6.38806 13.5703 6.48893 13.809 6.49753H17.4941V10.1827C17.5062 10.4188 17.6085 10.6413 17.7799 10.8042C17.9513 10.9671 18.1787 11.0579 18.4151 11.0579C18.6516 11.0579 18.879 10.9671 19.0504 10.8042C19.2218 10.6413 19.3241 10.4188 19.3361 10.1827V6.49633H23.0213C23.26 6.48773 23.486 6.38686 23.6518 6.21497C23.8176 6.04308 23.9102 5.81357 23.9102 5.57474C23.9102 5.33591 23.8176 5.1064 23.6518 4.93451C23.486 4.76262 23.26 4.66175 23.0213 4.65315H19.3361Z" fill="#999999"/>
</g>
<defs>
<clipPath id="clip0">
<rect width="24" height="24" fill="white"/>
</clipPath>
</defs>
</svg>
