<svg width="32" height="32" viewBox="0 0 32 32" fill="none" xmlns="http://www.w3.org/2000/svg">
<path d="M16 0C7.164 0 0 7.164 0 16C0 24.836 7.164 32 16 32C24.836 32 32 24.836 32 16C32 7.164 24.836 0 16 0ZM16 2.66667C23.364 2.66667 29.3333 8.636 29.3333 16C29.3333 23.364 23.364 29.3333 16 29.3333C8.636 29.3333 2.66667 23.364 2.66667 16C2.66667 8.636 8.636 2.66667 16 2.66667Z" fill="#666666"/>
<path d="M12.0001 8C12.3267 8.00004 12.6419 8.11994 12.8859 8.33695C13.13 8.55397 13.2859 8.853 13.3241 9.17733L13.3334 9.33333V13.3333C13.333 13.6732 13.2029 14 12.9696 14.2472C12.7363 14.4943 12.4175 14.643 12.0782 14.6629C11.739 14.6828 11.4049 14.5724 11.1443 14.3543C10.8837 14.1362 10.7162 13.8268 10.6761 13.4893L10.6667 13.3333V9.33333C10.6667 8.97971 10.8072 8.64057 11.0573 8.39052C11.3073 8.14048 11.6465 8 12.0001 8ZM20.0001 8C20.3267 8.00004 20.6419 8.11994 20.8859 8.33695C21.13 8.55397 21.2859 8.853 21.3241 9.17733L21.3334 9.33333V13.3333C21.333 13.6732 21.2029 14 20.9696 14.2472C20.7363 14.4943 20.4175 14.643 20.0782 14.6629C19.739 14.6828 19.4049 14.5724 19.1443 14.3543C18.8837 14.1362 18.7162 13.8268 18.6761 13.4893L18.6667 13.3333V9.33333C18.6667 8.97971 18.8072 8.64057 19.0573 8.39052C19.3073 8.14048 19.6465 8 20.0001 8Z" fill="#666666"/>
</svg>
