<svg width="32" height="32" viewBox="0 0 32 32" fill="none" xmlns="http://www.w3.org/2000/svg">
<path d="M29.328 29.328C29.328 30.064 29.024 30.736 28.544 31.216C28.048 31.712 27.36 32 26.656 32H5.32801C4.62401 32 3.93601 31.712 3.44001 31.216C2.94401 30.72 2.65601 30.032 2.65601 29.328V2.672C2.65601 1.936 2.96001 1.264 3.44001 0.784C3.95201 0.288 4.62401 0 5.32801 0H20.32L29.328 8.528V29.328ZM24.896 8L20 3.376V8H24.896ZM26.672 29.328V10.672H18.672C17.936 10.672 17.344 10.08 17.344 9.344V2.672H5.34401V29.344L26.672 29.328Z" fill="#666666"/>
<path d="M21.5 19.634C22.1667 20.0189 22.1667 20.9811 21.5 21.366L13.25 26.1292C12.5833 26.5141 11.75 26.0329 11.75 25.2631L11.75 15.7369C11.75 14.9671 12.5833 14.4859 13.25 14.8708L21.5 19.634Z" fill="#666666"/>
</svg>
