<svg width="32" height="32" viewBox="0 0 32 32" fill="none" xmlns="http://www.w3.org/2000/svg">
<path d="M29.328 29.328C29.328 30.064 29.024 30.736 28.544 31.216C28.048 31.712 27.36 32 26.656 32H5.32801C4.62401 32 3.93601 31.712 3.44001 31.216C2.94401 30.72 2.65601 30.032 2.65601 29.328V2.672C2.65601 1.936 2.96001 1.264 3.44001 0.784C3.95201 0.288 4.62401 0 5.32801 0H20.32L29.328 8.528V29.328ZM24.896 8L20 3.376V8H24.896ZM26.672 29.328V10.672H18.672C17.936 10.672 17.344 10.08 17.344 9.344V2.672H5.34401V29.344L26.672 29.328Z" fill="#666666"/>
<path d="M19.728 13.072L14.176 14.768C13.504 14.96 12.96 15.664 12.96 16.336V22.192C12.96 22.192 12.56 21.92 11.664 22.048C10.336 22.24 9.28003 23.248 9.28003 24.304C9.28003 25.36 10.352 26.016 11.664 25.824C12.976 25.632 13.952 24.656 13.952 23.6V17.952C13.952 17.488 14.512 17.28 14.512 17.28L19.424 15.744C19.424 15.744 19.968 15.568 19.968 16.064V20.736C19.968 20.736 19.472 20.448 18.576 20.56C17.264 20.72 16.192 21.712 16.192 22.768C16.192 23.824 17.264 24.496 18.576 24.336C19.888 24.176 20.96 23.184 20.96 22.128V13.936C20.944 13.264 20.4 12.88 19.728 13.072Z" fill="#666666"/>
</svg>
